<svg width="740" height="780" viewBox="0 0 740 780" fill="none" xmlns="http://www.w3.org/2000/svg">
<path d="M335.862 9.21463C356.915 -2.15283 382.277 -2.15285 403.329 9.21461L701.772 170.361C724.729 182.757 739.039 206.745 739.039 232.835L739.039 547.097C739.039 573.188 724.729 597.176 701.772 609.572L403.329 770.718C382.277 782.085 356.915 782.085 335.862 770.718L37.4198 609.572C14.4626 597.176 0.15332 573.188 0.15332 547.097L0.15332 232.835C0.15332 206.745 14.4625 182.757 37.4198 170.361L335.862 9.21463Z" fill="url(#paint0_linear)"/>
<path d="M434.469 288.151C433.813 291.694 431.598 299.173 424.44 298.987C418.976 298.85 414.766 294.154 414.911 288.775L416.971 215.519L417.643 191.629C417.643 191.629 421.186 185.02 424.712 214.65V214.759L434.508 285.019C434.665 286.058 434.652 287.116 434.469 288.151Z" fill="white"/>
<path d="M429.699 295.264H419.182V317.41H429.699V295.264Z" fill="white"/>
<path d="M428.565 312.151H420.475V321.871H428.565V312.151Z" fill="white"/>
<path d="M424.728 214.765C421.047 213.709 418.542 214.513 416.954 215.524L417.626 191.634C417.626 191.634 421.169 185.025 424.695 214.655L424.728 214.765Z" fill="#00C896"/>
<path d="M429.699 301.884V317.41H419.182V302.19C422.519 300.768 426.283 300.658 429.699 301.884V301.884Z" fill="#00C896"/>
<path d="M454.46 351.244C451.511 349.112 445.658 343.875 448.962 337.621C451.483 332.848 457.614 331.175 462.462 333.663L528.438 367.601L549.956 378.666C549.956 378.666 554.432 384.679 525.834 374.839L525.728 374.806L457.286 352.665C456.274 352.34 455.32 351.861 454.46 351.244V351.244Z" fill="white"/>
<path d="M434.456 324.897L429.846 334.204L450.065 343.912L454.675 334.606L434.456 324.897Z" fill="white"/>
<path d="M435.142 335.507L438.688 328.348L429.814 324.087L426.268 331.246L435.142 335.507Z" fill="white"/>
<path d="M525.729 374.801C528.305 372.002 528.672 369.432 528.438 367.601L549.957 378.666C549.957 378.666 554.433 384.679 525.834 374.839L525.729 374.801Z" fill="#00C896"/>
<path d="M444.02 341.005L429.843 334.199L434.452 324.905L448.335 331.574C448.173 335.145 446.629 338.519 444.02 341.005V341.005Z" fill="#00C896"/>
<path d="M394.42 351.244C397.369 349.112 403.222 343.875 399.918 337.621C397.396 332.848 391.266 331.175 386.418 333.663L320.442 367.601L298.923 378.666C298.923 378.666 294.448 384.679 323.046 374.839L323.151 374.806L391.593 352.671C392.606 352.344 393.56 351.863 394.42 351.244V351.244Z" fill="white"/>
<path d="M414.425 324.896L394.206 334.604L398.817 343.91L419.035 334.202L414.425 324.896Z" fill="white"/>
<path d="M422.61 331.243L419.063 324.084L410.189 328.345L413.736 335.504L422.61 331.243Z" fill="white"/>
<path d="M323.151 374.801C320.575 372.002 320.208 369.432 320.442 367.601L298.923 378.666C298.923 378.666 294.448 384.679 323.046 374.839L323.151 374.801Z" fill="#00C896"/>
<path d="M404.86 341.005L419.037 334.199L414.428 324.905L400.545 331.574C400.707 335.145 402.251 338.519 404.86 341.005V341.005Z" fill="#00C896"/>
<path d="M433.88 568.103H413.25L419.803 328.913H427.327L433.88 568.103Z" fill="white"/>
<path d="M424.44 332.619C428.237 332.619 431.315 329.589 431.315 325.851C431.315 322.113 428.237 319.083 424.44 319.083C420.643 319.083 417.565 322.113 417.565 325.851C417.565 329.589 420.643 332.619 424.44 332.619Z" fill="#00C896"/>
<path d="M587.223 275.545C586.784 277.939 585.285 282.996 580.443 282.87C578.66 282.789 576.981 282.019 575.773 280.725C574.564 279.432 573.924 277.722 573.99 275.966L575.389 226.403L575.839 210.244C575.839 210.244 578.238 205.772 580.626 225.819V225.89L587.251 273.451C587.353 274.146 587.344 274.853 587.223 275.545V275.545Z" fill="white"/>
<path d="M583.997 280.35H576.884V295.335H583.997V280.35Z" fill="white"/>
<path d="M583.231 291.776H577.756V298.352H583.231V291.776Z" fill="white"/>
<path d="M580.637 225.895C578.144 225.184 576.45 225.726 575.39 226.409L575.839 210.249C575.839 210.249 578.238 205.777 580.626 225.824L580.637 225.895Z" fill="#00C896"/>
<path d="M583.997 284.827V295.324H576.884V285.041C579.14 284.075 581.686 283.999 583.997 284.827Z" fill="#00C896"/>
<path d="M600.734 318.224C598.741 316.787 594.776 313.244 597.014 309.013C597.869 307.47 599.309 306.322 601.02 305.82C602.732 305.318 604.575 305.503 606.148 306.334L650.784 329.295L665.339 336.779C665.339 336.779 668.371 340.863 649.024 334.188H648.952L602.644 319.214C601.959 318.986 601.314 318.652 600.734 318.224V318.224Z" fill="white"/>
<path d="M587.213 300.403L584.095 306.697L597.775 313.266L600.894 306.972L587.213 300.403Z" fill="white"/>
<path d="M587.684 307.584L590.084 302.739L584.08 299.856L581.679 304.701L587.684 307.584Z" fill="white"/>
<path d="M648.968 334.166C650.711 332.274 650.961 330.536 650.8 329.295L665.355 336.779C665.355 336.779 668.387 340.863 649.04 334.188L648.968 334.166Z" fill="#00C896"/>
<path d="M593.687 311.303L584.074 306.695L587.189 300.403L596.591 304.913C596.486 307.33 595.447 309.616 593.687 311.303V311.303Z" fill="#00C896"/>
<path d="M560.131 318.224C562.125 316.787 566.089 313.244 563.852 309.013C562.996 307.47 561.556 306.322 559.845 305.82C558.134 305.318 556.29 305.503 554.717 306.334L510.081 329.295L495.526 336.779C495.526 336.779 492.494 340.863 511.841 334.188H511.913L558.221 319.214C558.907 318.986 559.551 318.652 560.131 318.224V318.224Z" fill="white"/>
<path d="M573.671 300.405L559.99 306.974L563.109 313.269L576.789 306.7L573.671 300.405Z" fill="white"/>
<path d="M579.203 304.697L576.803 299.852L570.798 302.735L573.199 307.58L579.203 304.697Z" fill="white"/>
<path d="M511.913 334.166C510.17 332.274 509.92 330.536 510.081 329.295L495.526 336.779C495.526 336.779 492.494 340.863 511.841 334.188L511.913 334.166Z" fill="#00C896"/>
<path d="M567.194 311.303L576.784 306.695L573.669 300.403L564.268 304.913C564.378 307.333 565.425 309.619 567.194 311.303V311.303Z" fill="#00C896"/>
<path d="M586.846 464.867L572.818 467.294L577.316 303.043H582.409L586.846 464.867Z" fill="white"/>
<path d="M580.444 305.629C583.014 305.629 585.097 303.578 585.097 301.048C585.097 298.517 583.014 296.466 580.444 296.466C577.873 296.466 575.79 298.517 575.79 301.048C575.79 303.578 577.873 305.629 580.444 305.629Z" fill="#00C896"/>
<path d="M268.942 275.545C268.504 277.939 267.004 282.996 262.162 282.87C260.38 282.789 258.702 282.018 257.494 280.725C256.287 279.432 255.647 277.721 255.715 275.966L257.109 226.403L257.558 210.244C257.558 210.244 259.957 205.772 262.345 225.819V225.89L268.976 273.451C269.073 274.147 269.062 274.853 268.942 275.545Z" fill="white"/>
<path d="M265.716 280.35H258.603V295.335H265.716V280.35Z" fill="white"/>
<path d="M264.949 291.776H259.474V298.352H264.949V291.776Z" fill="white"/>
<path d="M262.356 225.895C259.868 225.184 258.169 225.726 257.108 226.409L257.558 210.249C257.558 210.249 259.957 205.777 262.345 225.824L262.356 225.895Z" fill="#00C896"/>
<path d="M265.716 284.828V295.324H258.603V285.041C260.858 284.075 263.405 283.999 265.716 284.828Z" fill="#00C896"/>
<path d="M282.469 318.224C280.476 316.787 276.517 313.244 278.754 309.013C279.609 307.47 281.048 306.322 282.758 305.821C284.469 305.319 286.311 305.503 287.884 306.334L332.52 329.295L347.08 336.779C347.08 336.779 350.106 340.863 330.759 334.188H330.687L284.385 319.214C283.698 318.986 283.051 318.652 282.469 318.224V318.224Z" fill="white"/>
<path d="M268.934 300.405L265.815 306.699L279.496 313.268L282.614 306.973L268.934 300.405Z" fill="white"/>
<path d="M269.4 307.582L271.8 302.738L265.796 299.855L263.395 304.699L269.4 307.582Z" fill="white"/>
<path d="M330.688 334.166C332.431 332.274 332.681 330.536 332.52 329.295L347.08 336.779C347.08 336.779 350.107 340.863 330.76 334.188L330.688 334.166Z" fill="#00C896"/>
<path d="M275.406 311.303L265.815 306.695L268.936 300.403L278.332 304.913C278.224 307.333 277.176 309.621 275.406 311.303V311.303Z" fill="#00C896"/>
<path d="M241.849 318.224C243.848 316.787 247.807 313.244 245.569 309.013C244.714 307.47 243.274 306.322 241.563 305.82C239.851 305.318 238.008 305.503 236.434 306.334L191.799 329.295L177.244 336.779C177.244 336.779 174.212 340.863 193.559 334.188H193.631L239.938 319.214C240.624 318.986 241.269 318.652 241.849 318.224Z" fill="white"/>
<path d="M255.388 300.404L241.707 306.973L244.825 313.267L258.506 306.698L255.388 300.404Z" fill="white"/>
<path d="M260.928 304.7L258.527 299.855L252.523 302.738L254.923 307.583L260.928 304.7Z" fill="white"/>
<path d="M193.631 334.166C191.893 332.274 191.643 330.536 191.799 329.295L177.244 336.779C177.244 336.779 174.212 340.863 193.559 334.188L193.631 334.166Z" fill="#00C896"/>
<path d="M248.912 311.303L258.502 306.695L255.387 300.403L245.985 304.913C246.099 307.332 247.146 309.618 248.912 311.303Z" fill="#00C896"/>
<path d="M268.565 464.867H254.604L259.041 303.043H264.128L268.565 464.867Z" fill="white"/>
<path d="M262.162 305.629C264.732 305.629 266.816 303.578 266.816 301.048C266.816 298.517 264.732 296.466 262.162 296.466C259.592 296.466 257.509 298.517 257.509 301.048C257.509 303.578 259.592 305.629 262.162 305.629Z" fill="#00C896"/>
<path d="M270.266 573.702C270.266 573.702 296.981 564.873 291.451 533.59L257.516 524.942L249.638 550.611L270.266 573.702Z" fill="#CED7E7"/>
<path opacity="0.1" d="M249.638 550.611L270.261 573.702C270.261 573.702 296.976 564.873 291.446 533.59L249.638 550.611Z" fill="black"/>
<path d="M137.381 319.498C137.381 319.498 140.986 325.254 145.914 322.379C150.842 319.503 146.115 311.558 146.115 311.558C146.115 311.558 136.676 310.29 137.381 319.498Z" fill="#FED253"/>
<path opacity="0.1" d="M145.914 322.379C145.333 322.748 144.681 322.996 143.998 323.109C143.315 323.222 142.616 323.197 141.944 323.036C140.136 322.586 138.746 321.221 137.999 320.327C137.777 320.065 137.57 319.79 137.382 319.503C137.129 316.218 138.169 314.262 139.611 313.11C141.594 311.528 144.338 311.462 145.523 311.513C145.888 311.513 146.099 311.563 146.099 311.563L146.197 311.725C146.336 311.983 146.64 312.554 146.965 313.317C148.067 315.819 149.38 320.352 145.914 322.379Z" fill="black"/>
<path d="M272.893 532.119L291.431 533.59L325.932 533.868L298.748 566.718C298.748 566.718 290.123 567.178 288.347 568.37C286.57 569.563 261.626 568.926 261.626 568.926L257.6 552.087L272.893 532.119Z" fill="#FFA2A2"/>
<path opacity="0.05" d="M272.893 532.119L291.431 533.59L325.932 533.868L298.748 566.718C298.748 566.718 290.123 567.178 288.347 568.37C286.57 569.563 261.626 568.926 261.626 568.926L257.6 552.087L272.893 532.119Z" fill="black"/>
<path d="M254.144 443.798L258.455 450.974L259.392 463.487C259.392 463.487 262.394 474.156 264.644 477.285C266.894 480.413 267.832 488.696 267.832 488.696C267.832 488.696 268.769 496.423 269.891 498.076C271.014 499.729 272.518 511.722 272.518 511.722C272.518 511.722 282.456 531.224 291.452 533.615C291.452 533.615 246.832 547.968 270.267 573.727C270.267 573.727 253.583 577.77 249.644 573.177C245.705 568.583 235.396 500.497 235.396 500.497L238.583 443.085L254.144 443.798Z" fill="#CED7E7"/>
<path opacity="0.05" d="M254.144 443.798L258.455 450.974L259.392 463.487C259.392 463.487 262.394 474.156 264.644 477.285C266.894 480.413 267.832 488.696 267.832 488.696C267.832 488.696 268.769 496.423 269.891 498.076C271.014 499.729 272.518 511.722 272.518 511.722C272.518 511.722 282.456 531.224 291.452 533.615C291.452 533.615 246.832 547.968 270.267 573.727C270.267 573.727 253.583 577.77 249.644 573.177C245.705 568.583 235.396 500.497 235.396 500.497L238.583 443.085L254.144 443.798Z" fill="black"/>
<path d="M200.008 373.857C198.756 380.232 199.127 386.811 201.089 393.011L194.148 412.514C194.148 412.514 141.279 383.626 145.78 376.632C148.329 372.665 148.653 362.168 148.447 353.829C148.298 347.491 147.839 342.407 147.839 342.407C147.839 342.407 212.722 348.669 204.086 363.204C202.132 366.507 200.754 370.108 200.008 373.857V373.857Z" fill="#FFA2A2"/>
<path opacity="0.1" d="M204.087 363.204C202.132 366.507 200.754 370.108 200.008 373.857C190.38 376.88 179.981 376.537 170.581 372.886C161.181 369.234 153.36 362.5 148.447 353.829C148.298 347.491 147.84 342.407 147.84 342.407C147.84 342.407 212.707 348.669 204.087 363.204Z" fill="black"/>
<path d="M230.333 331.92C230.337 338.667 228.72 345.319 225.612 351.336C222.504 357.353 217.993 362.566 212.446 366.55C206.898 370.534 200.472 373.177 193.688 374.264C186.904 375.352 179.954 374.853 173.404 372.808C166.854 370.764 160.887 367.231 155.99 362.497C151.092 357.763 147.402 351.962 145.219 345.565C143.037 339.168 142.423 332.355 143.427 325.681C144.432 319.008 147.027 312.661 151.001 307.156C151.619 306.304 152.27 305.472 152.953 304.66C156.846 300.016 161.69 296.228 167.17 293.541V293.541C170.144 292.081 173.28 290.965 176.517 290.216C182.36 288.857 188.425 288.693 194.336 289.734C200.247 290.775 205.876 292.998 210.874 296.266C215.871 299.533 220.13 303.775 223.386 308.727C226.641 313.68 228.824 319.237 229.797 325.052C230.161 327.324 230.34 329.621 230.333 331.92Z" fill="#FFA2A2"/>
<path d="M247.578 508.204C246.924 511.631 247.743 517.892 248.984 524.265C249.036 524.543 249.092 524.821 249.149 525.099C249.206 525.377 249.288 525.807 249.36 526.155C249.932 528.895 250.555 531.608 251.162 534.075C251.77 536.541 252.316 538.654 252.779 540.392C253.48 542.995 253.958 544.632 253.958 544.632C253.958 544.632 254.02 546.239 254.103 548.797C254.149 550.272 254.2 552.072 254.252 554.058C254.252 554.634 254.288 555.22 254.303 555.827C254.329 556.883 254.355 557.98 254.381 559.101C254.381 559.465 254.381 559.829 254.406 560.198C254.406 561.406 254.453 562.639 254.473 563.867C254.499 565.555 254.52 567.243 254.53 568.881C254.53 569.507 254.53 570.124 254.53 570.73C254.53 572.297 254.53 573.798 254.53 575.178C254.473 579.095 254.314 582.051 253.974 582.905C253.855 583.198 253.747 583.517 253.644 583.85C253.198 585.419 252.874 587.019 252.676 588.636L251.801 587.934C250.127 586.579 248.469 585.195 246.785 583.85C243.986 581.549 241.016 579.458 237.897 577.594C237.686 577.472 237.475 577.351 237.259 577.235C236.682 576.906 236.095 576.598 235.498 576.305C234.267 575.696 233.006 575.149 231.718 574.667C225.771 572.444 219.401 571.635 212.943 571.772C210.369 572.737 208.695 573.429 208.695 573.429L205.42 574.4L204.874 574.561C201.326 575.623 196.337 577.129 194.54 577.755C191.635 578.766 166.419 583.916 166.419 583.916C164.115 584.533 161.762 584.956 159.385 585.179C155.056 586.374 150.65 587.279 146.197 587.888C136.077 589.158 125.799 588.346 116.016 585.503C115.724 585.52 115.432 585.511 115.141 585.478C115.321 585.478 115.496 585.437 115.656 585.407L115.028 585.225L114.168 584.962C112.726 584.517 111.296 584.031 109.878 583.502L109.018 583.178C107.645 582.659 106.301 582.102 104.986 581.505L104.126 581.121C102.753 580.494 101.409 579.832 100.095 579.135C99.6208 578.892 99.1522 578.63 98.6887 578.382C97.2881 577.614 95.9149 576.809 94.5692 575.966C94.3427 574.061 94.2242 572.787 94.2242 572.787L92.2159 562.973L92.113 562.467L90.6711 555.392L90.5681 554.887L87.4322 539.493L87.3292 538.987L85.8873 531.912L85.7844 531.406L82.6072 516.022L82.5042 515.517L81.0624 508.442L80.9594 507.936L77.8079 492.522L77.705 492.017L76.2631 484.966L76.1601 484.461L75.5886 481.681L74.7286 477.472C74.7286 477.472 71.984 473.62 68.8943 469.067L68.5493 468.562C67.6688 467.283 66.7625 465.954 65.882 464.65C65.5884 464.22 65.3052 463.796 65.022 463.376C64.5929 462.74 64.1775 462.118 63.7758 461.511L63.4978 461.092L63.4411 461.006C59.0024 454.264 61.9736 451.333 61.9736 451.333C61.9736 451.333 63.8376 448.857 66.2424 445.582C66.3608 445.415 66.4844 445.248 66.6132 445.076C67.643 443.661 68.7759 442.115 69.8882 440.568L70.7481 439.365C71.0725 438.916 71.3918 438.466 71.7008 438.021C71.8243 437.854 71.9428 437.682 72.0561 437.516C74.4299 434.15 76.3867 431.214 76.7884 430.172C77.4166 428.53 81.4228 423.673 85.4136 419.413C88.5599 416.047 91.6907 413.055 93.0965 412.337C96.284 410.685 97.5971 405.343 97.5971 405.343C97.5971 405.343 104.533 402.957 105.47 401.118C106.408 399.278 119.533 391.01 119.533 391.01C119.533 391.01 124.843 387.654 126.99 385.633C127.294 385.368 127.559 385.064 127.778 384.728C128.524 383.414 133.401 382.333 135.383 381.943C135.898 381.842 136.218 381.787 136.218 381.787C137.018 380.359 138.03 379.056 139.22 377.921C140.028 377.218 141.037 374.797 141.887 372.452C142.809 369.895 143.525 367.434 143.525 367.434C145.028 362.466 148.025 363.937 148.025 363.937C148.021 364.615 148.087 365.292 148.221 365.958C149.472 372.023 156.269 374.55 159.838 377.385C163.777 380.508 169.962 388.609 174.838 390.262C178.875 391.632 183.556 396.797 185.039 398.52L185.152 398.652C185.399 398.935 185.523 399.096 185.523 399.096C185.523 399.096 188.288 398.955 189.972 398.924H190.585C190.927 398.891 191.253 398.761 191.522 398.55C193.196 397.434 195.688 394.159 196.774 393.406C198.082 392.481 199.401 377.577 199.401 377.577L199.468 377.547C204.138 375.399 209.148 396.898 209.148 396.898C209.148 396.898 217.959 399.475 218.711 401.315C218.855 401.679 219.519 402.326 220.518 403.109C225.067 406.521 229.908 409.539 234.988 412.13C235.101 412.186 235.209 412.241 235.323 412.287C235.425 412.341 235.53 412.39 235.637 412.433C235.827 412.524 236.013 412.605 236.188 412.681C236.466 412.802 236.723 412.903 236.96 412.984L237.269 413.09C238.007 413.331 238.702 413.684 239.329 414.137C239.514 414.268 239.7 414.404 239.88 414.551C240.581 415.124 241.226 415.76 241.806 416.451C241.893 416.552 241.976 416.658 242.058 416.759C242.45 417.24 242.8 417.715 243.088 418.154C243.561 418.833 243.993 419.538 244.381 420.267C244.381 420.267 252.063 433.149 254.504 434.615C256.945 436.08 258.444 450.994 258.444 450.994L250.205 480.969C250.205 480.969 249.818 488.55 249.097 496.282C248.696 500.618 248.186 505.03 247.578 508.204Z" fill="#CED7E7"/>
<path d="M185.523 400.006C185.523 400.006 179.998 402.947 175.682 403.225C175.118 403.251 174.551 403.219 173.993 403.129C169.472 402.457 162.84 398.808 162.84 398.808L170.621 390.434L180.085 395.038L183.566 398.217L185.523 400.006Z" fill="#63667E"/>
<path opacity="0.1" d="M229.777 325.052C229.581 325.324 229.358 325.576 229.112 325.805C226.404 328.332 221.594 327.286 217.902 326.7C214.694 326.185 211.56 325.296 208.566 324.051C205.961 322.96 202.835 321.626 200.492 323.192C199.591 323.789 198.973 324.744 198.036 325.269C197.098 325.795 195.904 325.83 194.797 325.846C191.192 325.846 187.588 325.886 184.071 325.087C178.823 323.885 173.396 320.857 168.406 322.854C164.503 324.41 162.386 328.58 161.331 332.587C160.816 334.553 160.435 336.63 159.271 338.298C158.107 339.966 155.857 341.149 153.941 340.365C151.114 339.208 150.697 334.498 147.288 334.26C143.545 334.002 143.591 337.798 144.683 340.542C146.3 344.585 148.416 348.628 148.509 352.843C144.485 345.771 142.584 337.725 143.025 329.636C143.466 321.548 146.232 313.747 151.001 307.136C151.831 306.632 152.481 305.886 152.86 305.003C152.898 304.884 152.929 304.763 152.953 304.64C153.236 303.23 152.438 301.749 152.391 300.273C152.211 296.67 156.187 294.158 159.832 293.703C162.258 293.4 164.74 293.632 167.17 293.556C168.394 293.53 169.612 293.371 170.801 293.081C172.851 292.478 174.771 291.51 176.465 290.226C182.308 288.867 188.374 288.703 194.284 289.744C200.195 290.785 205.824 293.008 210.822 296.276C215.819 299.543 220.078 303.785 223.334 308.737C226.59 313.69 228.772 319.247 229.746 325.062L229.777 325.052Z" fill="black"/>
<path d="M230.658 322.075C230.401 323.075 229.866 323.985 229.113 324.703C226.404 327.23 221.595 326.179 217.903 325.593C214.694 325.089 211.559 324.207 208.567 322.965C205.961 321.878 202.835 320.544 200.493 322.111C199.591 322.707 198.973 323.662 198.036 324.188C197.099 324.714 195.904 324.749 194.797 324.759C191.193 324.784 187.588 324.804 184.071 324.006C178.824 322.798 173.396 319.776 168.407 321.767C164.503 323.324 162.387 327.498 161.331 331.506C160.816 333.472 160.435 335.549 159.272 337.212C158.108 338.874 155.858 340.067 153.942 339.284C151.115 338.126 150.698 333.416 147.289 333.179C143.545 332.921 143.592 336.716 144.683 339.461C146.599 344.247 149.205 349.007 148.35 354.082C147.5 354.082 146.094 354.051 145.26 354.031C145.909 352.944 144.673 351.651 143.442 351.282C142.212 350.913 140.775 350.918 139.838 350.038C138.901 349.159 138.895 347.8 138.993 346.582C139.207 343.978 139.856 341.427 140.914 339.031C141.589 337.515 142.459 335.872 141.944 334.286C141.635 333.566 141.263 332.875 140.832 332.218C139.761 330.197 140.013 327.67 140.93 325.583C141.321 324.693 141.604 323.854 141.928 323.056C142.338 321.921 142.931 320.858 143.684 319.907C144.864 318.467 146.017 316.299 144.714 314.96C144.385 314.621 145.044 314.388 144.833 313.949C144.795 313.874 144.769 313.794 144.756 313.711C144.695 313.179 144.826 312.643 145.126 312.195C145.187 312.079 145.254 311.966 145.327 311.856C145.386 311.741 145.453 311.63 145.528 311.523C146.668 309.654 148.184 308.033 149.982 306.757C151.1 305.964 152.407 305.201 152.85 303.917C153.365 302.401 152.459 300.789 152.382 299.186C152.202 295.583 156.177 293.071 159.823 292.616C163.468 292.162 167.248 292.915 170.801 291.99C175.842 290.686 179.385 286.319 183.963 283.868C186.467 282.554 189.245 281.819 192.083 281.719C194.921 281.619 197.744 282.157 200.338 283.292C205.683 285.688 209.715 290.529 215.297 292.349C217.274 292.995 219.417 293.253 221.198 294.325C223.258 295.568 224.509 297.741 225.58 299.884C227.213 303.134 227.542 306.398 228.67 309.84C229.566 312.569 230.807 316.137 230.91 319.281C230.968 320.219 230.883 321.161 230.658 322.075V322.075Z" fill="#896363"/>
<path opacity="0.1" d="M145.383 315.743C145.465 315.419 145.473 315.082 145.407 314.755C145.34 314.428 145.2 314.12 144.997 313.853C145.131 314.247 144.55 314.474 144.868 314.803C145.123 315.065 145.3 315.39 145.383 315.743Z" fill="black"/>
<path opacity="0.1" d="M144.983 312.695C144.922 312.872 144.885 313.055 144.874 313.241C144.972 313.079 145.107 312.913 144.983 312.695Z" fill="black"/>
<path opacity="0.1" d="M229.258 323.47C226.544 325.997 221.74 324.951 218.037 324.36C214.831 323.853 211.699 322.966 208.712 321.717C206.101 320.625 202.98 319.291 200.632 320.857C199.736 321.454 199.118 322.409 198.176 322.935C197.234 323.46 196.044 323.496 194.937 323.506C191.332 323.506 187.728 323.551 184.206 322.748C178.964 321.545 173.536 318.528 168.546 320.514C164.643 322.075 162.527 326.245 161.471 330.253C160.956 332.218 160.58 334.296 159.411 335.963C158.242 337.631 155.992 338.814 154.082 338.035C151.255 336.873 150.838 332.168 147.429 331.93C144.767 331.743 144.025 333.613 144.205 335.69C144.36 334.104 145.235 332.881 147.429 333.032C150.838 333.27 151.255 337.98 154.082 339.137C155.992 339.921 158.248 338.743 159.411 337.065C160.575 335.387 160.956 333.32 161.471 331.359C162.527 327.352 164.643 323.177 168.546 321.621C173.536 319.629 178.964 322.631 184.206 323.854C187.707 324.658 191.343 324.633 194.937 324.607C196.044 324.607 197.213 324.577 198.176 324.041C199.139 323.506 199.721 322.561 200.632 321.959C202.98 320.398 206.101 321.732 208.712 322.818C211.7 324.067 214.831 324.956 218.037 325.467C221.74 326.053 226.544 327.109 229.258 324.572C230.73 323.192 231.173 321.196 231.075 319.013C230.993 320.746 230.478 322.318 229.258 323.47Z" fill="black"/>
<path opacity="0.1" d="M152.563 298.272C152.534 298.523 152.524 298.777 152.532 299.03C152.583 300.081 152.99 301.132 153.118 302.158C153.309 300.9 152.717 299.586 152.563 298.272Z" fill="black"/>
<path opacity="0.1" d="M142.098 334.129C142.141 334.28 142.173 334.434 142.196 334.589C142.28 334.067 142.246 333.534 142.098 333.027C141.791 332.305 141.419 331.612 140.986 330.955C140.599 330.207 140.37 329.391 140.312 328.554C140.207 329.762 140.44 330.975 140.986 332.062C141.42 332.716 141.792 333.408 142.098 334.129Z" fill="black"/>
<path opacity="0.1" d="M148.489 352.818L145.476 352.773C145.547 352.951 145.575 353.143 145.559 353.334C145.543 353.525 145.483 353.709 145.384 353.874C146.233 353.874 147.644 353.905 148.473 353.925C148.617 353.06 148.668 352.182 148.623 351.307C148.611 351.813 148.566 352.318 148.489 352.818Z" fill="black"/>
<path opacity="0.1" d="M143.56 350.023C142.33 349.659 140.898 349.654 139.981 348.77C139.442 348.191 139.138 347.437 139.127 346.652C139.049 347.815 139.127 349.068 139.981 349.877C140.898 350.761 142.33 350.766 143.56 351.13C143.961 351.244 144.333 351.438 144.654 351.699C144.976 351.959 145.24 352.282 145.429 352.646C145.95 351.6 144.755 350.372 143.56 350.023Z" fill="black"/>
<path opacity="0.1" d="M237.244 577.235C236.667 576.906 236.08 576.598 235.483 576.305C234.252 575.696 232.991 575.149 231.703 574.667C225.756 572.444 219.386 571.635 212.928 571.772C210.354 572.737 208.68 573.429 208.68 573.429L205.405 574.4L204.859 574.561C204.823 574.207 204.782 573.854 204.746 573.495C204.71 573.136 204.669 572.792 204.628 572.439C203.474 561.719 202.568 550.707 202.568 550.707V541.196V540.089L202.506 512.065L201.991 502.827L201.749 498.738L201.703 497.96L201.61 496.363L201.559 495.413C201.445 495.112 201.349 494.805 201.27 494.493C201.234 494.367 201.198 494.225 201.167 494.078C201.038 493.573 200.899 492.921 200.755 492.214C199.813 487.564 198.634 479.726 198.562 478.134C198.469 476.011 196.595 463.316 196.595 463.316C196.404 456.326 190.415 443.166 188.907 440.684C187.398 438.203 185.714 423.294 186.28 422.491C186.574 422.061 186.764 419.519 186.883 417.174C186.883 416.906 186.909 416.643 186.919 416.385C186.996 414.551 187.032 413.02 187.032 413.02L192.923 411.877L194.504 411.574L194.627 411.549L194.679 411.65C194.849 411.958 195.379 412.944 196.002 414.238C196.074 414.374 196.141 414.521 196.213 414.667C196.244 414.738 196.28 414.809 196.316 414.879C197.47 417.356 198.804 420.616 198.747 422.491C198.654 425.806 202.501 433.811 202.501 433.811C202.872 435.651 211.028 453.956 211.028 453.956C211.028 453.956 217.686 471.897 217.311 474.843C216.935 477.79 220.498 497.293 220.498 497.293L224.154 517.352C225.931 521.304 228.274 530.411 228.274 530.411L229.164 535.576L229.334 536.561L231.708 550.343L232.872 557.095C232.872 557.095 233.361 560.683 234.103 564.676C234.165 565.035 234.237 565.399 234.309 565.762C234.766 568.391 235.414 570.983 236.25 573.52C236.664 574.735 236.996 575.976 237.244 577.235V577.235Z" fill="black"/>
<path d="M237.882 577.594C237.671 577.472 237.459 577.351 237.243 577.235C236.666 576.906 236.079 576.598 235.482 576.305C234.252 575.696 232.99 575.149 231.702 574.667C225.755 572.444 219.385 571.635 212.928 571.772C210.353 572.737 208.68 573.429 208.68 573.429L205.405 574.4C205.363 574.046 205.327 573.692 205.286 573.333C205.245 572.974 205.214 572.686 205.183 572.363C204.03 561.669 203.123 550.707 203.123 550.707V541.105V539.998L203.062 512.045L202.547 503.221L202.444 501.391L202.372 500.153L202.279 498.516L202.186 496.853L202.119 495.655V495.393C202.119 495.367 202.119 495.337 202.083 495.307C201.985 495.034 201.867 494.619 201.738 494.094L201.676 493.841C201.651 493.725 201.62 493.598 201.594 493.472C200.626 489.161 199.205 479.867 199.127 478.123C199.035 476.001 197.16 463.306 197.16 463.306C196.97 456.316 190.981 443.156 189.472 440.674C187.964 438.193 186.285 423.284 186.846 422.48C187.171 421.975 187.361 418.907 187.485 416.375C187.485 416.173 187.485 415.976 187.485 415.789C187.552 414.228 187.577 413.01 187.577 413.01L193.056 411.948L194.447 411.68L194.663 411.64L195.178 411.539C195.178 411.539 195.852 412.762 196.661 414.445L196.764 414.657C197.943 417.154 199.339 420.55 199.297 422.48C199.205 425.796 203.051 433.801 203.051 433.801C203.422 435.641 211.579 453.946 211.579 453.946C211.579 453.946 218.237 471.887 217.861 474.833C217.485 477.78 221.048 497.283 221.048 497.283L224.704 517.341C226.481 521.294 228.824 530.401 228.824 530.401L229.653 535.212L229.823 536.187L231.692 547.063L233.417 557.085C233.417 557.085 233.932 560.658 234.643 564.666C234.71 565.03 234.777 565.394 234.849 565.762C235.305 568.402 235.954 571.007 236.79 573.556C237.247 574.876 237.611 576.225 237.882 577.594V577.594Z" fill="#63667E"/>
<path d="M233.238 318.032C233.238 318.032 231.271 320.519 229.494 320.519C227.717 320.519 220.802 320.241 217.197 319.139C213.593 318.037 195.92 317.204 195.92 317.204C195.92 317.204 170.894 317.294 170.049 316.466C169.205 315.637 154.488 311.22 152.989 311.498C152.675 311.558 151.908 311.69 150.883 311.857L149.709 312.044C147.933 312.321 145.713 312.645 143.684 312.882C141.177 313.171 138.973 313.317 138.272 313.064V310.947C138.272 310.947 141.177 306.803 141.362 305.615C141.547 304.427 143.988 287.209 150.363 281.048C152.997 276.107 157.259 272.188 162.454 269.93C171.079 266.245 179.704 263.122 179.704 263.122L181.213 262.91L186.079 262.202C186.227 262.058 186.388 261.926 186.558 261.808C187.907 260.797 191.996 258.599 197.326 263.324L198.268 264.8C198.268 264.8 214.669 268.57 222.259 281.725C229.849 294.881 230.23 307.763 230.792 313.651C230.792 313.651 230.416 315.308 231.168 315.95C231.44 316.186 231.699 316.436 231.945 316.698C232.012 316.764 232.079 316.83 232.141 316.9C232.357 317.113 232.558 317.335 232.723 317.517C232.742 317.531 232.76 317.548 232.774 317.567C232.814 317.615 232.857 317.661 232.903 317.704L233.238 318.032Z" fill="#FED253"/>
<path opacity="0.05" d="M233.237 318.032C233.237 318.032 231.27 320.519 229.493 320.519C227.717 320.519 220.801 320.241 217.196 319.139C213.592 318.037 195.919 317.203 195.919 317.203C195.919 317.203 170.893 317.294 170.049 316.466C169.204 315.637 154.487 311.22 152.989 311.498C152.675 311.558 151.907 311.69 150.883 311.856L150.615 310.239L150.548 309.84C150.548 309.84 178.952 303.861 197.886 306.995C216.821 310.128 230.791 313.615 230.791 313.615C230.791 313.615 230.415 315.273 231.167 315.915C231.439 316.151 231.698 316.4 231.944 316.663C232.011 316.728 232.078 316.794 232.14 316.865C232.356 317.077 232.557 317.299 232.722 317.481C232.741 317.496 232.759 317.513 232.773 317.532C232.814 317.58 232.857 317.625 232.902 317.668L233.237 318.032Z" fill="black"/>
<path opacity="0.1" d="M230.658 322.075C227.151 322.343 220.688 321.504 217.861 321.095C217.058 320.979 216.27 320.837 215.477 320.665C212.444 320.018 203.119 318.204 197.454 319.043C190.611 320.054 171.301 318.214 171.301 318.214C171.301 318.214 159.395 315.824 154.611 313.893C152.855 313.181 149.92 312.958 147.001 313.312C146.256 313.403 145.517 313.533 144.786 313.701C140.801 314.626 137.438 316.733 138.02 320.327C137.797 320.065 137.591 319.79 137.402 319.503C137.15 316.218 138.19 314.262 139.632 313.11L139.972 312.973C141.733 312.482 143.525 312.106 145.337 311.846C145.621 311.801 145.914 311.76 146.213 311.725C151.336 311.048 158.746 310.896 164.998 313.984C164.998 313.984 170.806 316.658 174.745 316.658C178.685 316.658 210.74 316.936 218.242 319.048C219.736 319.472 221.259 319.787 222.8 319.993C225.535 320.339 228.314 320.082 230.936 319.24C230.989 320.194 230.896 321.15 230.658 322.075V322.075Z" fill="black"/>
<path opacity="0.1" d="M233.238 318.032C233.238 318.032 231.271 320.519 229.494 320.519C227.717 320.519 220.802 320.241 217.197 319.139C213.593 318.037 195.92 317.203 195.92 317.203C195.92 317.203 170.894 317.294 170.049 316.466C169.205 315.637 154.488 311.22 152.989 311.498C152.675 311.558 151.908 311.69 150.883 311.856L149.709 312.043C147.67 312.033 145.64 312.316 143.684 312.882C141.177 313.17 138.973 313.317 138.272 313.064V312.645C138.812 312.337 139.375 312.07 139.956 311.846C143.431 310.891 147.009 310.345 150.616 310.219C155.111 310.057 160.369 310.573 164.988 312.857C164.988 312.857 170.796 315.531 174.735 315.531C178.675 315.531 210.73 315.804 218.232 317.921C219.727 318.341 221.249 318.655 222.789 318.861C226.169 319.279 229.6 318.795 232.723 317.461C232.742 317.475 232.76 317.492 232.774 317.512C232.814 317.56 232.857 317.605 232.903 317.648L233.238 318.032Z" fill="black"/>
<path d="M138.093 320.241C138.093 320.241 131.811 315.546 139.967 312.417C139.967 312.417 154.216 308.096 164.999 313.428C164.999 313.428 170.807 316.092 174.746 316.092C178.686 316.092 210.741 316.37 218.243 318.487C219.738 318.907 221.261 319.221 222.801 319.427C226.792 319.902 230.835 319.148 234.371 317.269C234.886 316.991 235.35 316.85 235.489 317.011C235.957 317.567 235.587 320.787 231.462 321.428C228.244 321.934 220.931 320.979 217.857 320.539C217.059 320.423 216.266 320.276 215.478 320.109C212.445 319.463 203.12 317.648 197.43 318.487C190.591 319.498 171.276 317.658 171.276 317.658C171.276 317.658 159.375 315.268 154.592 313.332C149.808 311.397 136.311 313.064 138.093 320.241Z" fill="#FED253"/>
<path opacity="0.1" d="M191.054 270.91C190.539 270.182 183.922 264.982 181.224 262.88L186.09 262.172C186.238 262.027 186.398 261.896 186.569 261.778C190.106 265.422 191.054 270.91 191.054 270.91Z" fill="black"/>
<path opacity="0.1" d="M169.591 298.802L167.434 301.931L175.683 301.658L175.868 298.161L169.591 298.802Z" fill="black"/>
<path opacity="0.1" d="M219.926 302.578L220.863 305.428L226.115 306.257L223.865 302.851L219.926 302.578Z" fill="black"/>
<path opacity="0.1" d="M129.75 398.267C130.311 399.187 148.777 423.031 153.653 422.369C158.53 421.707 129.75 398.267 129.75 398.267Z" fill="black"/>
<path opacity="0.1" d="M191.619 420.06C191.619 420.06 196.12 424.295 195.461 425.947C194.801 427.6 191.619 420.06 191.619 420.06Z" fill="black"/>
<path opacity="0.1" d="M142.5 449.135C142.5 449.135 138.561 467.258 140.626 467.834C142.691 468.41 142.5 449.135 142.5 449.135Z" fill="black"/>
<path opacity="0.1" d="M193.119 519.515C193.773 521.354 199.211 533.317 200.431 533.959C201.652 534.6 193.119 519.515 193.119 519.515Z" fill="black"/>
<path opacity="0.1" d="M256.303 470.386C256.112 471.028 251.426 474.803 252.456 476.183C253.486 477.563 256.303 470.386 256.303 470.386Z" fill="black"/>
<path opacity="0.1" d="M219.926 503.964C219.834 504.429 218.896 514.072 220.678 515.926C222.46 517.781 219.926 503.964 219.926 503.964Z" fill="black"/>
<path opacity="0.1" d="M267.96 554.058C266.601 554.801 265.195 555.518 263.763 556.206C262.219 556.944 260.674 557.646 259.098 558.308C258.47 558.576 257.842 558.839 257.219 559.091C256.271 559.475 255.334 559.844 254.407 560.198C251.59 561.28 248.877 562.22 246.462 563.013C245.524 563.321 244.628 563.604 243.794 563.867C239.592 565.176 236.801 565.889 236.801 565.889C236.164 565.755 235.511 565.702 234.86 565.732C234.68 565.732 234.494 565.732 234.304 565.732C233.432 565.794 232.564 565.902 231.703 566.056C225.951 567.066 217.826 569.902 212.929 571.756C210.354 572.722 208.68 573.414 208.68 573.414L205.405 574.384L204.86 574.546C201.312 575.607 196.322 577.113 194.525 577.74C191.62 578.751 166.404 583.901 166.404 583.901C164.1 584.518 161.747 584.941 159.37 585.164C153.512 585.692 147.625 585.823 141.749 585.558C135.847 585.932 126.3 584.659 120.744 583.8L119.859 583.663C117.711 583.32 116.347 583.072 116.347 583.072L117.068 582.097L131.851 562.078L131.939 561.957L145.714 543.313L146.229 542.636L147.48 540.943C147.48 540.943 148.232 539.932 151.126 539.866C151.466 539.866 151.836 539.866 152.243 539.866C154.674 540.058 157.072 540.539 159.385 541.297L160.055 541.494C170.029 544.299 185.446 543.596 185.446 543.596C185.446 543.596 195.04 542.08 202.578 541.17L203.14 541.1C205.603 540.758 208.084 540.547 210.57 540.468C215.164 540.559 225.102 538.168 225.102 538.168C227.239 537.719 228.14 537.34 229.345 536.496C229.505 536.384 229.675 536.263 229.86 536.132C230.375 535.753 230.967 535.288 231.729 534.712C233.119 533.665 235.071 532.245 238.14 530.254C238.408 530.082 238.691 529.91 238.995 529.749C239.299 529.587 239.685 529.37 240.056 529.188C243.028 527.806 246.161 526.788 249.386 526.155C252.061 525.591 254.776 525.224 257.507 525.059H257.914C265.638 524.654 273.527 525.953 278.141 530.214C278.947 530.962 279.65 531.812 280.231 532.741C280.513 533.182 280.764 533.641 280.983 534.115C281.404 535.02 281.717 535.97 281.915 536.945C281.953 537.127 281.984 537.309 282.008 537.491C282.008 537.547 282.008 537.597 282.008 537.653C282.008 537.799 282.039 537.946 282.049 538.093C282.461 544.142 276.065 549.61 267.96 554.058Z" fill="black"/>
<path d="M116.347 581.985C116.347 581.985 133.031 585.018 141.749 584.467C141.749 584.467 157.779 585.296 166.404 582.814C166.404 582.814 191.636 577.659 194.525 576.649C197.414 575.638 208.68 572.322 208.68 572.322C208.68 572.322 230.617 563.306 236.801 564.777C236.801 564.777 285.36 552.451 281.889 535.798C278.419 519.146 247.77 522.921 238.12 529.173C228.47 535.424 229.881 536.076 225.092 537.087C225.092 537.087 215.153 539.477 210.56 539.386C205.967 539.295 185.436 542.515 185.436 542.515C185.436 542.515 169.313 543.253 159.38 540.215C149.447 537.178 147.475 539.846 147.475 539.846L116.347 581.985Z" fill="#FFA2A2"/>
<path opacity="0.1" d="M152.525 538.765C152.528 538.785 152.528 538.805 152.525 538.825C152.489 539.201 152.39 539.568 152.232 539.912C150.255 544.673 139.029 557.515 139.029 557.515C138.517 559.04 137.899 560.529 137.18 561.972C135.633 565.056 133.852 568.021 131.851 570.842C128.884 575.062 125.645 579.091 122.154 582.905H122.129C121.684 583.229 121.222 583.527 120.743 583.8C119.533 584.507 117.716 585.382 116.001 585.488C115.709 585.505 115.416 585.496 115.125 585.463C115.306 585.463 115.481 585.422 115.64 585.392L115.012 585.21L114.152 584.947C112.71 584.502 111.28 584.015 109.863 583.486L109.003 583.163C107.63 582.644 106.286 582.086 104.971 581.49L104.111 581.106C102.738 580.479 101.394 579.817 100.079 579.12C99.6051 578.877 99.1365 578.615 98.6731 578.367C97.2724 577.599 95.8993 576.793 94.5535 575.951C93.1255 575.058 91.7282 574.127 90.3619 573.156C89.3321 571.281 88.4824 569.619 88.019 568.724C87.1745 567.061 87.1024 564.681 87.2054 562.958C87.2054 562.781 87.2054 562.614 87.2363 562.452C87.3238 561.371 87.4577 560.628 87.4577 560.628C86.6947 559.627 86.0063 558.573 85.3979 557.474C85.0484 556.929 84.8496 556.304 84.8212 555.66C84.8445 555.402 84.8201 555.141 84.7491 554.892C84.3526 553.295 82.6481 550.55 81.0724 548.827C79.8984 547.559 79.8263 542.818 79.9396 539.457C80.0065 537.436 80.1352 535.95 80.1352 535.95C79.9045 535.804 79.7318 535.584 79.6461 535.328C79.232 534.222 78.952 533.072 78.8119 531.902C78.8119 531.735 78.7655 531.568 78.7398 531.396C78.4102 529.077 78.2609 526.747 78.2609 526.747C74.4503 524.023 72.6377 519.772 71.7932 515.982L71.6851 515.477C71.2213 513.147 71.0244 510.774 71.0981 508.401C71.0981 508.174 71.0981 508.002 71.0981 507.896C71.0981 507.79 71.0981 507.769 71.0981 507.769C71.0981 507.769 71.6027 496.818 73.0136 492.542C73.0703 492.36 73.1321 492.193 73.1939 492.037C73.2978 491.768 73.4326 491.512 73.5955 491.274C74.1105 490.602 74.4761 489.333 74.7799 487.832C74.991 486.791 75.1661 485.634 75.2948 484.481C75.4133 483.521 75.5059 482.566 75.578 481.681C75.7789 479.316 75.8406 477.472 75.8406 477.472L74.888 472.862C74.6254 471.604 74.4246 470.336 74.2855 469.067C74.2855 468.9 74.2443 468.733 74.2237 468.562C73.9829 466.219 73.9398 463.861 74.095 461.511C74.095 461.34 74.095 461.173 74.1259 461.006C74.528 455.655 75.9535 450.425 78.3278 445.592L78.5853 445.086C78.9286 444.413 79.289 443.751 79.6666 443.1C79.9396 442.62 80.2279 442.145 80.5266 441.675C81.3183 440.416 82.1778 439.2 83.1013 438.031C83.2352 437.859 83.3742 437.693 83.5132 437.526C85.1201 435.571 86.9058 433.764 88.848 432.128C94.0489 427.742 98.8224 425.836 103.158 425.69C122.118 425.033 132.752 457.943 134.472 463.71C134.636 464.266 134.719 464.569 134.719 464.569C134.719 464.569 142.402 472.114 140.151 475.425C139.715 476.153 139.45 476.968 139.374 477.81C138.756 482.263 140.527 489.596 140.527 489.596C140.527 489.596 141.156 491.617 142.989 496.459L143.529 497.874C144.678 500.906 144.946 505.996 144.286 510.554C143.653 514.921 142.165 518.782 139.781 519.772C134.904 521.794 136.217 523.815 137.34 525.478C138.007 526.67 138.564 527.918 139.003 529.208C139.709 531.073 140.363 533.034 140.61 533.797C140.682 534.009 140.718 534.125 140.718 534.125C141.401 533.866 142.11 533.679 142.834 533.569C143.756 533.443 144.667 533.534 144.843 534.307C144.935 534.722 145.466 535.212 146.212 535.702C148.426 537.198 152.525 538.765 152.525 538.765Z" fill="black"/>
<path d="M151.405 538.765C151.373 539.149 151.274 539.525 151.111 539.877C149.144 544.642 137.908 557.515 137.908 557.515C137.394 559.039 136.777 560.528 136.06 561.972C134.817 564.462 133.412 566.871 131.852 569.184C128.624 573.963 125.048 578.506 121.152 582.779L121.034 582.905C121.034 582.905 120.58 583.244 119.86 583.678C118.571 584.485 117.152 585.07 115.663 585.407L115.035 585.225L114.175 584.962C112.733 584.517 111.303 584.03 109.885 583.502L109.025 583.178C107.652 582.659 106.308 582.102 104.993 581.505L104.133 581.121C102.76 580.494 101.416 579.832 100.101 579.135C99.6276 578.892 99.159 578.63 98.6955 578.382C97.2949 577.614 95.9217 576.808 94.576 575.966C93.1479 575.073 91.7507 574.142 90.3844 573.171C89.7528 572.727 89.128 572.27 88.51 571.802C87.8149 570.508 87.2587 569.416 86.9137 568.739C86.0692 567.076 85.9971 564.696 86.1001 562.973C86.1001 562.796 86.1001 562.629 86.131 562.467C86.2186 561.386 86.3524 560.643 86.3524 560.643C86.3524 560.643 85.9353 560.092 85.4307 559.344C85.1475 558.93 84.8437 558.45 84.5708 557.974C84.0558 557.085 83.6542 556.185 83.7314 555.675C83.7418 555.588 83.7418 555.499 83.7314 555.412C83.7237 555.241 83.6978 555.072 83.6542 554.907C83.2577 553.31 81.5481 550.565 79.9723 548.842C78.7983 547.574 78.7262 542.833 78.8343 539.472C78.8343 539.3 78.8343 539.134 78.8343 538.967C78.9064 537.223 79.0146 535.965 79.0146 535.965C78.4327 535.717 77.9847 533.883 77.6963 531.922L77.6191 531.416C77.2895 529.097 77.1402 526.767 77.1402 526.767C73.3296 524.043 71.517 519.793 70.6777 516.002C70.0929 513.347 69.8679 510.629 70.0083 507.916C70.0083 507.835 70.0083 507.79 70.0083 507.79C70.0083 507.79 70.4511 496.782 71.8621 492.502C71.9187 492.32 71.9805 492.153 72.0423 491.996C72.1658 491.734 72.3196 491.486 72.5006 491.258C73.2833 490.187 73.8034 487.61 74.1432 484.971L74.205 484.466C74.6324 480.928 74.7509 477.456 74.7509 477.456L73.7931 472.847C73.5322 471.584 73.3313 470.319 73.1906 469.052C73.1648 468.885 73.1494 468.713 73.1288 468.546C72.888 466.204 72.845 463.846 73.0001 461.496C73.0001 461.324 73.0001 461.158 73.0361 460.991C73.4357 455.639 74.8613 450.409 77.238 445.577C77.3204 445.405 77.4028 445.238 77.4955 445.071C78.1576 443.759 78.8933 442.483 79.6994 441.25C79.9775 440.821 80.2607 440.396 80.5594 439.977C81.028 439.31 81.5172 438.653 82.027 438.016L82.4389 437.511C84.032 435.563 85.8021 433.761 87.7273 432.128C93.3917 427.362 98.5411 425.523 103.176 425.69C121.43 426.331 131.677 458.06 133.361 463.71C133.526 464.266 133.608 464.569 133.608 464.569C133.608 464.569 141.296 472.114 139.046 475.425C138.61 476.153 138.344 476.968 138.269 477.81C137.646 482.263 139.422 489.596 139.422 489.596C139.422 489.596 140.05 491.617 141.883 496.459C142.048 496.909 142.228 497.379 142.398 497.874C143.547 500.906 143.815 505.995 143.155 510.554C142.522 514.926 141.039 518.782 138.65 519.772C133.778 521.794 135.086 523.815 136.214 525.478C136.881 526.67 137.438 527.918 137.877 529.208C138.768 531.588 139.587 534.125 139.587 534.125C139.924 533.998 140.268 533.888 140.617 533.797C141.333 533.566 142.092 533.488 142.841 533.569C143.049 533.585 143.246 533.665 143.404 533.798C143.562 533.93 143.673 534.109 143.722 534.307C143.861 534.914 144.927 535.667 146.219 536.379C147.898 537.276 149.629 538.072 151.405 538.765V538.765Z" fill="#CED7E7"/>
<path opacity="0.1" d="M83.6279 490.167C85.4096 490.076 104.534 482.808 108.474 485.29C112.413 487.771 136.795 503.873 136.795 503.873C136.795 503.873 121.517 484.279 108.206 479.68C94.8948 475.081 83.6279 490.167 83.6279 490.167Z" fill="black"/>
<path opacity="0.1" d="M111.119 519.793C111.119 519.793 130.244 523.563 133.148 526.14L111.119 519.793Z" fill="black"/>
<path opacity="0.1" d="M107.438 547.862C107.16 548.14 100.229 563.407 100.785 563.407C101.341 563.407 107.252 554.31 107.252 554.31L107.438 547.862Z" fill="black"/>
<path opacity="0.1" d="M120.47 529.541C120.47 529.541 114.847 531.477 115.501 531.659C116.155 531.841 120.28 530.37 120.47 529.541Z" fill="black"/>
<path opacity="0.1" d="M114.848 552.638C115.785 554.568 118.782 560.365 119.441 559.445C120.1 558.525 114.848 552.638 114.848 552.638Z" fill="black"/>
<path opacity="0.1" d="M185.044 399.617L184.241 400.739C184.241 400.739 177.861 396.327 175.24 394.118C172.619 391.91 166.429 402.027 161.553 404.787C156.676 407.546 148.432 408.284 148.432 408.284C148.432 408.284 142.057 402.027 142.253 400.198C142.449 398.368 139.256 397.808 139.065 396.519C138.875 395.23 137.752 391.551 136.254 389.711C135.461 388.741 135.348 385.704 135.42 383.06C135.935 382.959 136.254 382.904 136.254 382.904C137.054 381.476 138.066 380.173 139.256 379.037C140.945 377.567 143.566 368.551 143.566 368.551C145.065 363.583 148.061 365.053 148.061 365.053C148.061 372.599 155.94 375.358 159.874 378.487C163.808 381.615 169.998 389.711 174.874 391.369C178.875 392.708 183.556 397.888 185.044 399.617Z" fill="black"/>
<path d="M185.044 398.51L184.241 399.637C184.241 399.637 177.835 395.235 175.214 393.011C172.593 390.788 166.403 400.921 161.527 403.68C156.65 406.439 148.406 407.182 148.406 407.182C148.406 407.182 142.031 400.921 142.227 399.096C142.422 397.272 139.23 396.706 139.039 395.412C138.849 394.118 137.726 390.444 136.228 388.604C135.435 387.634 135.321 384.597 135.393 381.954L136.228 381.802C137.028 380.375 138.04 379.072 139.23 377.936C140.919 376.46 143.54 367.449 143.54 367.449C145.038 362.481 148.035 363.947 148.035 363.947C148.035 371.492 155.914 374.257 159.848 377.385C163.782 380.513 169.972 388.604 174.848 390.262C178.875 391.622 183.556 396.782 185.044 398.51Z" fill="#CED7E7"/>
<path opacity="0.1" d="M185.524 400.006C185.524 400.006 179.998 402.947 175.683 403.225C175.118 403.251 174.552 403.219 173.994 403.129C173.994 403.129 178.757 399.637 183.181 398.924L185.524 400.006Z" fill="black"/>
<path opacity="0.1" d="M196.775 415.001C196.775 415.001 189.808 412.337 187.506 416.345C187.583 414.505 187.614 412.979 187.614 412.979L195.209 411.503C195.209 411.503 195.941 412.833 196.795 414.622C196.775 414.859 196.775 415.001 196.775 415.001Z" fill="black"/>
<path d="M173.994 403.129C173.994 403.129 182.341 398.212 186.353 398.626C190.56 399.056 198.711 399.359 198.711 399.359C198.711 399.359 195.9 405.616 196.276 406.904C196.651 408.193 196.744 414.45 196.744 414.45C196.744 414.45 188.309 411.231 186.904 417.209C186.904 417.209 182.31 410.493 179.216 408.466C177.162 407.01 175.393 405.202 173.994 403.129Z" fill="#63667E"/>
<path opacity="0.1" d="M221.146 408.84C218.711 408.84 210.085 403.498 208.211 400.006C206.337 396.514 203.711 400.37 201.275 401.664C199.73 402.492 193.607 400.759 190.307 399.501C191.98 398.384 195.688 395.24 196.774 394.487C198.082 393.562 199.4 378.658 199.4 378.658C204.086 376.268 209.148 397.979 209.148 397.979C209.148 397.979 217.964 400.557 218.711 402.396C218.855 402.76 219.519 403.407 220.518 404.191C221.548 406.738 222.114 408.84 221.146 408.84Z" fill="black"/>
<path d="M221.146 407.733C218.71 407.733 210.085 402.396 208.211 398.904C206.336 395.412 203.71 399.268 201.274 400.557C199.73 401.386 194.822 399.784 191.521 398.535C193.195 397.423 195.687 394.149 196.774 393.39C198.082 392.471 199.4 377.567 199.4 377.567C204.086 375.176 209.148 396.888 209.148 396.888C209.148 396.888 217.964 399.465 218.71 401.305C218.854 401.669 219.519 402.316 220.518 403.099C221.548 405.631 222.114 407.733 221.146 407.733Z" fill="#CED7E7"/>
<path d="M254.458 568.936L335.978 502.225C336.791 501.551 337.828 501.191 338.892 501.215L369.305 501.998C369.305 501.998 371.411 503.514 368.321 506.829L291.42 568.764C290.589 569.431 289.558 569.811 288.485 569.846L255.23 570.928C254.991 570.935 254.756 570.869 254.557 570.739C254.359 570.609 254.206 570.421 254.121 570.202C254.036 569.983 254.023 569.743 254.083 569.516C254.144 569.289 254.274 569.087 254.458 568.936Z" fill="#6C63FF"/>
<path d="M293.892 560.729C293.892 560.729 311.698 585.755 331.482 562.477C351.266 539.199 345.545 526.969 339.546 526.322C333.547 525.675 299.793 551.162 293.892 560.729Z" fill="#FFA2A2"/>
<defs>
<linearGradient id="paint0_linear" x1="369.596" y1="-9" x2="369.596" y2="788.933" gradientUnits="userSpaceOnUse">
<stop stop-color="#00C896"/>
<stop offset="1" stop-color="#2F4858"/>
</linearGradient>
</defs>
</svg>
