<svg width="702" height="529" viewBox="0 0 702 529" fill="none" xmlns="http://www.w3.org/2000/svg">
<path d="M3.70176 225.044C13.3828 59.02 38.0227 197.911 433.682 8.0612C463.567 -5.80565 546.655 -11.6802 639.93 75.7566C756.523 185.053 691.015 283.294 587.114 406.345C490.72 520.504 559.956 470.584 273.314 520.504C-13.3288 570.425 -5.97926 391.068 3.70176 225.044Z" fill="url(#paint0_linear)"/>
<g clip-path="url(#clip0)">
<path d="M565.661 138H141.277C139.433 138 137.938 139.494 137.938 141.336V369.594C137.938 371.436 139.433 372.93 141.277 372.93H565.661C567.505 372.93 569 371.436 569 369.594V141.336C569 139.494 567.505 138 565.661 138Z" fill="#E8EAF2"/>
<path d="M568.995 141.336V152.615H137.934V141.336C137.934 140.898 138.021 140.464 138.189 140.059C138.357 139.654 138.603 139.286 138.914 138.976C139.224 138.666 139.593 138.42 139.998 138.253C140.404 138.085 140.839 137.999 141.277 138H565.656C566.095 137.999 566.53 138.085 566.935 138.253C567.34 138.42 567.709 138.666 568.019 138.976C568.329 139.286 568.575 139.654 568.742 140.059C568.91 140.464 568.996 140.898 568.995 141.336Z" fill="#65617D"/>
<path opacity="0.8" d="M144.59 148.153C146.162 148.153 147.436 146.88 147.436 145.31C147.436 143.739 146.162 142.466 144.59 142.466C143.019 142.466 141.745 143.739 141.745 145.31C141.745 146.88 143.019 148.153 144.59 148.153Z" fill="#FA5959"/>
<path opacity="0.8" d="M152.259 148.153C153.83 148.153 155.105 146.88 155.105 145.31C155.105 143.739 153.83 142.466 152.259 142.466C150.687 142.466 149.413 143.739 149.413 145.31C149.413 146.88 150.687 148.153 152.259 148.153Z" fill="#FED253"/>
<path opacity="0.8" d="M159.932 148.153C161.504 148.153 162.778 146.88 162.778 145.31C162.778 143.739 161.504 142.466 159.932 142.466C158.36 142.466 157.086 143.739 157.086 145.31C157.086 146.88 158.36 148.153 159.932 148.153Z" fill="#8CCF4D"/>
<path opacity="0.2" d="M363.458 167.797H160.425C158.581 167.797 157.086 169.291 157.086 171.133V261.767C157.086 263.61 158.581 265.104 160.425 265.104H363.458C365.302 265.104 366.797 263.61 366.797 261.767V171.133C366.797 169.291 365.302 167.797 363.458 167.797Z" fill="#00C896"/>
<path d="M365.972 294.774H157.911C157.456 294.774 157.086 295.143 157.086 295.598V300.627C157.086 301.082 157.456 301.451 157.911 301.451H365.972C366.428 301.451 366.797 301.082 366.797 300.627V295.598C366.797 295.143 366.428 294.774 365.972 294.774Z" fill="white"/>
<path d="M365.972 308.87H157.911C157.456 308.87 157.086 309.239 157.086 309.694V314.723C157.086 315.178 157.456 315.547 157.911 315.547H365.972C366.428 315.547 366.797 315.178 366.797 314.723V309.694C366.797 309.239 366.428 308.87 365.972 308.87Z" fill="white"/>
<path d="M365.972 322.962H157.911C157.456 322.962 157.086 323.331 157.086 323.786V328.815C157.086 329.27 157.456 329.639 157.911 329.639H365.972C366.428 329.639 366.797 329.27 366.797 328.815V323.786C366.797 323.331 366.428 322.962 365.972 322.962Z" fill="white"/>
<path d="M365.972 337.058H157.911C157.456 337.058 157.086 337.427 157.086 337.882V342.911C157.086 343.366 157.456 343.735 157.911 343.735H365.972C366.428 343.735 366.797 343.366 366.797 342.911V337.882C366.797 337.427 366.428 337.058 365.972 337.058Z" fill="white"/>
<path d="M365.972 351.149H157.911C157.456 351.149 157.086 351.518 157.086 351.974V357.002C157.086 357.457 157.456 357.827 157.911 357.827H365.972C366.428 357.827 366.797 357.457 366.797 357.002V351.974C366.797 351.518 366.428 351.149 365.972 351.149Z" fill="white"/>
<path d="M541.486 167.797H394.503C392.659 167.797 391.165 169.291 391.165 171.133V354.49C391.165 356.333 392.659 357.827 394.503 357.827H541.486C543.33 357.827 544.825 356.333 544.825 354.49V171.133C544.825 169.291 543.33 167.797 541.486 167.797Z" fill="white"/>
<path opacity="0.2" d="M426.592 189.691H400.527C400.071 189.691 399.702 190.06 399.702 190.515V195.544C399.702 195.999 400.071 196.368 400.527 196.368H426.592C427.048 196.368 427.417 195.999 427.417 195.544V190.515C427.417 190.06 427.048 189.691 426.592 189.691Z" fill="#00C896"/>
<path d="M536.702 202.3H400.527C400.071 202.3 399.702 202.669 399.702 203.124V208.153C399.702 208.608 400.071 208.977 400.527 208.977H536.702C537.158 208.977 537.527 208.608 537.527 208.153V203.124C537.527 202.669 537.158 202.3 536.702 202.3Z" fill="#E8EAF2"/>
<path d="M536.702 214.913H400.527C400.071 214.913 399.702 215.282 399.702 215.737V220.766C399.702 221.221 400.071 221.59 400.527 221.59H536.702C537.158 221.59 537.527 221.221 537.527 220.766V215.737C537.527 215.282 537.158 214.913 536.702 214.913Z" fill="#E8EAF2"/>
<path opacity="0.2" d="M426.592 240.13H400.527C400.071 240.13 399.702 240.499 399.702 240.955V245.983C399.702 246.439 400.071 246.808 400.527 246.808H426.592C427.048 246.808 427.417 246.439 427.417 245.983V240.955C427.417 240.499 427.048 240.13 426.592 240.13Z" fill="#00C896"/>
<path d="M536.702 252.744H400.527C400.071 252.744 399.702 253.113 399.702 253.568V258.596C399.702 259.052 400.071 259.421 400.527 259.421H536.702C537.158 259.421 537.527 259.052 537.527 258.596V253.568C537.527 253.113 537.158 252.744 536.702 252.744Z" fill="#E8EAF2"/>
<path d="M536.702 265.352H400.527C400.071 265.352 399.702 265.721 399.702 266.177V271.205C399.702 271.66 400.071 272.03 400.527 272.03H536.702C537.158 272.03 537.527 271.66 537.527 271.205V266.177C537.527 265.721 537.158 265.352 536.702 265.352Z" fill="#E8EAF2"/>
<path opacity="0.2" d="M426.592 290.574H400.527C400.071 290.574 399.702 290.943 399.702 291.398V296.427C399.702 296.882 400.071 297.251 400.527 297.251H426.592C427.048 297.251 427.417 296.882 427.417 296.427V291.398C427.417 290.943 427.048 290.574 426.592 290.574Z" fill="#00C896"/>
<path d="M536.702 303.183H400.527C400.071 303.183 399.702 303.552 399.702 304.007V309.036C399.702 309.491 400.071 309.86 400.527 309.86H536.702C537.158 309.86 537.527 309.491 537.527 309.036V304.007C537.527 303.552 537.158 303.183 536.702 303.183Z" fill="#E8EAF2"/>
<path d="M536.702 315.792H400.527C400.071 315.792 399.702 316.161 399.702 316.616V321.645C399.702 322.1 400.071 322.469 400.527 322.469H536.702C537.158 322.469 537.527 322.1 537.527 321.645V316.616C537.527 316.161 537.158 315.792 536.702 315.792Z" fill="#E8EAF2"/>
<path d="M534.725 341.013H508.659C508.204 341.013 507.834 341.382 507.834 341.838V346.866C507.834 347.322 508.204 347.691 508.659 347.691H534.725C535.18 347.691 535.55 347.322 535.55 346.866V341.838C535.55 341.382 535.18 341.013 534.725 341.013Z" fill="#00C896"/>
<path d="M365.972 272.029H339.906C339.451 272.029 339.082 272.399 339.082 272.854V277.882C339.082 278.338 339.451 278.707 339.906 278.707H365.972C366.427 278.707 366.797 278.338 366.797 277.882V272.854C366.797 272.399 366.427 272.029 365.972 272.029Z" fill="#00C896"/>
<path d="M349.652 284.394C350.063 284.957 350.556 285.455 351.115 285.873C351.481 286.173 351.852 286.479 352.241 286.745L352.581 286.972C352.568 286.991 352.556 287.011 352.546 287.033C352.454 287.199 352.419 287.39 352.446 287.578C352.529 287.805 352.682 288 352.882 288.136C353.791 288.979 354.403 290.093 354.628 291.311C354.763 292.018 354.288 292.772 354.318 293.492C354.387 294.196 354.575 294.883 354.872 295.524C355.466 297.038 356.099 298.603 357.29 299.707C357.572 302.137 358.508 304.445 360.001 306.384C361.254 307.989 362.925 309.197 364.571 310.388C365.092 310.805 365.661 311.161 366.264 311.448C366.806 311.645 367.366 311.791 367.936 311.884C372.768 312.863 377.676 313.426 382.605 313.567C382.745 316.498 382.804 319.432 382.784 322.369C382.811 322.851 382.742 323.334 382.583 323.79C382.339 324.219 382.046 324.619 381.71 324.981C380.58 326.481 380.523 328.509 380.619 330.385C380.729 332.58 380.985 334.765 381.383 336.927C381.894 339.692 381.427 342.749 382.409 345.379C382.797 346.417 383.186 347.46 383.57 348.498C383.7 348.788 383.778 349.1 383.801 349.418C383.801 350.103 383.365 350.683 383.015 351.276C382.531 352.138 382.295 353.118 382.335 354.106C382.33 354.218 382.359 354.329 382.417 354.425C382.544 354.595 382.802 354.582 383.015 354.547C383.884 354.423 384.758 354.343 385.634 354.307C385.474 354.503 385.328 354.71 385.198 354.926C384.988 355.293 384.803 355.673 384.643 356.065C384.33 356.717 384.083 357.399 383.906 358.101C383.874 358.203 383.849 358.306 383.832 358.411C383.784 358.62 383.74 358.847 383.705 359.043C383.518 360.282 383.442 361.534 383.478 362.785C383.356 365.119 383.238 367.552 383.011 368.268C382.692 369.275 383.09 370.885 383.482 372.424C383.503 373.486 383.695 374.537 384.05 375.538C384.081 376.642 384.208 377.741 384.43 378.822C385.777 386.414 387.214 393.993 388.742 401.558C388.877 402.212 389.008 402.867 389.178 403.512C389.746 405.615 390.74 407.579 392.098 409.282C393.292 410.792 394.317 412.429 395.153 414.163C395.066 414.572 394.974 414.987 394.874 415.397C394.001 419.017 392.884 422.584 392.487 426.3C392.329 427.774 392.286 429.292 391.701 430.662C391.404 431.355 390.968 432.014 390.907 432.768C390.872 433.246 390.984 433.722 391.23 434.133L390.942 434.369L390.78 434.5C389.671 435.372 388.187 435.559 386.821 435.917C385.455 436.275 383.989 436.99 383.565 438.346C383.537 438.43 383.516 438.516 383.5 438.604C383.251 439.851 384.006 441.177 385.071 441.91C386.206 442.69 387.62 442.93 388.999 443.109C390.379 443.288 391.775 443.414 393.01 444.029C394.08 444.557 394.979 445.425 396.109 445.809L396.314 445.865C396.057 446.018 395.804 446.166 395.537 446.302C394.367 446.907 393.102 447.309 391.797 447.492C390.488 447.671 388.908 447.758 388.231 448.905C387.677 449.852 388.078 451.134 388.877 451.884C389.676 452.634 390.784 452.966 391.854 453.192C394.302 453.672 396.782 453.98 399.274 454.113L401.692 454.3C404.053 454.479 406.418 454.662 408.793 454.671C411.719 454.68 414.641 454.426 417.522 453.912C417.636 453.922 417.751 453.905 417.857 453.864C417.964 453.822 418.059 453.757 418.136 453.673C418.213 453.588 418.27 453.487 418.302 453.378C418.334 453.268 418.34 453.152 418.321 453.04C418.269 450.077 417.909 447.127 417.247 444.239C417.046 443.366 415.863 444.557 415.204 445.303C415.113 444.867 415.017 444.431 414.903 444.025L415.423 443.781C415.819 443.629 416.154 443.35 416.374 442.987C416.48 442.694 416.514 442.38 416.474 442.071C416.378 440.169 416.261 438.198 415.357 436.528C414.768 435.528 414.032 434.623 413.175 433.841C412.969 427.86 412.239 421.909 410.993 416.055C410.325 413.077 409.495 410.063 407.771 407.542C407.553 407.228 407.335 406.914 407.086 406.596C406.9 403.73 406.553 400.878 406.047 398.052C405.947 397.679 405.947 397.286 406.047 396.913C406.213 396.593 406.424 396.299 406.676 396.041C407.715 394.702 407.291 392.8 407.169 391.108C406.999 388.683 407.571 386.271 408.142 383.903L410.251 375.141C410.423 374.31 410.671 373.497 410.993 372.712C411.547 371.648 412.182 370.627 412.891 369.659C414.86 366.559 415.787 362.912 415.536 359.248C415.938 359.392 416.335 359.536 416.728 359.685C417.024 357.238 415.99 354.451 416.728 352.161C417.997 351.237 419.022 350.017 419.713 348.607C420.293 347.298 420.455 345.859 421.062 344.577C421.402 343.853 421.882 343.19 422.083 342.396C422.38 341.236 422.004 340.015 422.022 338.815C422.061 336.198 423.951 333.787 423.545 331.213C423.349 329.992 422.637 328.854 422.672 327.615C422.731 326.944 422.9 326.286 423.174 325.67C424.614 321.871 426.024 317.82 425.291 313.829C425.103 312.804 424.772 311.788 424.828 310.75C424.889 309.559 425.452 308.403 425.265 307.221C425.194 306.773 425.012 306.349 424.737 305.987C425.251 305.197 425.689 304.361 426.046 303.488C426.282 302.988 426.4 302.44 426.391 301.888C426.341 301.511 426.215 301.149 426.021 300.822C425.828 300.496 425.571 300.211 425.265 299.986C424.649 299.546 423.991 299.168 423.301 298.856C423.084 298.76 422.89 298.62 422.729 298.446C422.606 298.25 422.498 298.044 422.406 297.831C422.022 297.164 421.184 296.959 420.529 296.554C418.15 295.101 418.377 291.364 416.348 289.453C415.657 288.835 414.775 288.47 413.849 288.421C412.922 288.372 412.007 288.641 411.254 289.183C411.063 289.378 410.81 289.503 410.539 289.536C410.276 289.483 410.035 289.354 409.845 289.165C409.339 288.825 408.738 288.659 408.129 288.69C407.756 287.202 407.594 285.669 407.649 284.137H407.833C408.072 284.144 408.312 284.116 408.544 284.054C409.587 283.753 410.181 282.671 410.608 281.668C410.977 280.819 411.284 279.945 411.525 279.051C411.547 278.964 411.564 278.881 411.586 278.794C413.585 280.198 415.907 281.668 416.466 281.359C417.487 280.796 411.883 276.81 411.883 276.81C412.542 276.225 412.909 275.17 413.074 274.236C413.471 272.382 413.486 270.466 413.118 268.606C412.682 266.77 411.577 265.021 409.901 264.162C409.159 263.778 408.26 263.516 407.719 262.927C407.637 262.84 407.565 262.743 407.505 262.639C407.475 262.59 407.447 262.539 407.422 262.487C407.365 262.324 407.286 262.17 407.187 262.029C406.881 261.671 406.314 261.78 405.877 261.837H405.724H405.602H405.476C403.813 261.872 402.202 260.943 400.522 260.943C398.68 260.943 397.109 262.011 395.489 262.744C395.162 262.892 394.852 263.028 394.56 263.18C393.543 263.656 392.744 264.157 392.233 265.3C391.911 265.679 391.679 266.126 391.557 266.608C391.507 266.829 391.478 267.054 391.47 267.28C390.072 268.663 389.065 270.391 388.551 272.288C388.037 274.186 388.035 276.185 388.544 278.084C389.053 279.982 390.056 281.713 391.451 283.099C392.845 284.485 394.582 285.478 396.485 285.977C396.524 286.086 396.568 286.195 396.602 286.309C396.935 287.311 397.099 288.362 397.087 289.418C397.087 289.492 397.087 289.567 397.087 289.645C396.24 289.845 395.428 290.175 394.682 290.622C393.73 291.185 393.009 292.067 392.648 293.112C392.626 293.195 392.604 293.274 392.587 293.348C391.995 293.153 391.377 293.047 390.754 293.034C390.473 292.994 390.186 293.015 389.914 293.097C389.642 293.178 389.391 293.317 389.178 293.505C389.035 293.682 388.934 293.889 388.881 294.111C388.668 294.307 388.628 294.652 388.476 294.914C388.009 295.734 386.791 295.463 385.857 295.69C384.862 295.934 384.076 296.868 383.055 296.872C382.665 296.812 382.269 296.797 381.876 296.828C381.492 296.924 381.191 297.452 381.483 297.701C381.254 297.677 381.022 297.717 380.814 297.818C380.606 297.918 380.43 298.073 380.305 298.268C380.021 298.634 379.838 299.07 379.524 299.415C379.389 299.227 379.203 299.082 378.987 298.998C378.772 298.914 378.537 298.895 378.31 298.944C377.858 299.043 377.425 299.214 377.027 299.45C376.85 299.544 376.658 299.611 376.46 299.646C376.228 299.66 375.996 299.64 375.77 299.585C374.674 299.402 373.548 299.554 372.54 300.021C371.667 300.457 370.795 299.668 369.817 299.607C369.459 299.626 369.105 299.516 368.822 299.297C368.638 299.068 368.509 298.799 368.446 298.512C368.226 297.882 367.849 297.319 367.349 296.877C366.849 296.435 366.244 296.128 365.592 295.987C365.846 295.184 365.786 294.315 365.424 293.555C365.062 292.794 364.425 292.2 363.641 291.891C363.705 291.316 363.626 290.734 363.413 290.196C363.2 289.658 362.859 289.18 362.419 288.803C362.203 288.66 361.999 288.499 361.808 288.324C361.548 288.018 361.355 287.661 361.24 287.277C360.949 286.515 360.658 285.752 360.367 284.987C359.988 284.909 359.687 284.752 359.324 284.691C359.324 284.612 359.324 284.534 359.324 284.455C359.313 283.672 359.18 282.895 358.932 282.152C358.486 280.947 357.863 279.815 357.081 278.794C356.256 277.638 355.335 276.504 354.109 275.806C353.699 275.587 353.276 275.392 352.843 275.222L350.613 274.302C350.485 274.242 350.347 274.206 350.207 274.197C349.604 274.197 349.495 275.122 349.836 275.619C350.517 276.618 352.044 276.897 352.476 278.031C352.113 278.043 351.764 278.17 351.478 278.394C351.192 278.617 350.983 278.925 350.883 279.274C350.866 279.458 350.792 279.632 350.669 279.771C350.473 279.932 350.163 279.841 349.94 279.963C349.543 280.172 349.718 280.765 349.674 281.215C349.578 281.604 349.442 281.983 349.268 282.344C349.174 282.693 349.16 283.058 349.227 283.413C349.293 283.768 349.439 284.103 349.652 284.394ZM403.119 440.649L403.066 439.96C403.114 440.082 403.158 440.209 403.206 440.331C403.599 441.36 404.035 442.378 404.515 443.384L404.433 443.345C404.095 443.189 403.736 443.087 403.368 443.039C403.272 443.039 403.171 443.017 403.071 443.013C403.2 442.231 403.216 441.435 403.119 440.649Z" fill="url(#paint1_linear)"/>
<path d="M397.373 290.418C397.329 292.044 396.779 293.623 396.692 295.246C401.493 295.486 406.22 293.161 410.964 293.872C409.655 293 408.93 291.469 408.511 289.947C407.979 287.983 407.821 285.937 408.044 283.915C408.056 283.802 408.075 283.69 408.101 283.579C408.28 282.785 408.734 281.66 408.612 281.032C408.45 280.203 407.669 280.369 406.966 280.417C404.82 280.578 402.684 280.853 400.568 281.241C400.013 281.337 394.641 282.676 394.562 282.55C395.504 284.063 396.283 285.671 396.888 287.347C397.218 288.337 397.382 289.374 397.373 290.418Z" fill="#E9B1B1"/>
<path d="M349.653 285.279C350.063 285.843 350.556 286.342 351.115 286.758C351.482 287.054 351.853 287.36 352.241 287.63C352.938 288.165 353.768 288.501 354.642 288.603C355.781 288.681 358.207 288.01 358.919 287.033C359.216 286.541 359.358 285.971 359.325 285.397C359.313 284.618 359.181 283.846 358.932 283.107C358.487 281.906 357.863 280.778 357.081 279.762C356.256 278.615 355.336 277.486 354.109 276.792C353.7 276.572 353.277 276.379 352.843 276.212L350.613 275.287C350.486 275.227 350.348 275.192 350.207 275.183C349.605 275.183 349.496 276.103 349.836 276.596C350.517 277.59 352.045 277.869 352.477 278.999C352.114 279.008 351.764 279.133 351.478 279.355C351.191 279.577 350.983 279.885 350.884 280.233C350.867 280.417 350.792 280.592 350.67 280.73C350.473 280.887 350.163 280.8 349.941 280.918C349.544 281.127 349.718 281.721 349.675 282.165C349.577 282.553 349.441 282.93 349.269 283.291C349.182 283.63 349.171 283.984 349.237 284.328C349.304 284.672 349.446 284.997 349.653 285.279Z" fill="#E9B1B1"/>
<path d="M415.776 448.434C415.405 448.068 414.803 448.129 414.288 448.212C411.512 448.644 408.708 448.864 405.899 448.87C405.55 447.161 406.567 445.495 406.894 443.781C406.94 443.331 407.051 442.89 407.226 442.472C407.623 441.713 408.535 441.369 409.347 441.194C410.853 440.876 413.21 440.322 414.052 441.835C415.06 443.68 415.383 446.38 415.776 448.434Z" fill="#65617D"/>
<path d="M385.106 441.949C386.241 442.725 387.655 442.965 389.034 443.144C390.414 443.323 391.81 443.449 393.045 444.055C394.115 444.583 395.014 445.447 396.144 445.826C397.196 446.116 398.305 446.134 399.365 445.878C400.635 445.639 401.984 445.176 402.674 444.082C403.285 443.105 403.219 441.87 403.136 440.723C403.036 439.415 402.944 438.106 402.848 436.829C402.851 436.499 402.767 436.174 402.604 435.887C401.687 434.548 399.453 436.445 398.239 436.445C396.345 436.445 394.311 435.416 392.945 434.159C392.825 434.036 392.687 433.932 392.535 433.85C391.994 433.61 391.457 434.055 390.977 434.447L390.815 434.578C389.707 435.45 388.223 435.634 386.856 435.987C385.49 436.34 384.024 437.055 383.6 438.403C383.572 438.489 383.551 438.576 383.535 438.665C383.286 439.903 384.041 441.225 385.106 441.949Z" fill="#3F3D56"/>
<path opacity="0.05" d="M385.106 441.949C386.241 442.725 387.655 442.965 389.034 443.144C390.414 443.323 391.81 443.449 393.045 444.055C394.115 444.583 395.014 445.447 396.144 445.826C397.196 446.116 398.305 446.134 399.365 445.878C400.635 445.639 401.984 445.176 402.674 444.082C403.285 443.105 403.219 441.87 403.136 440.723C403.036 439.415 402.944 438.106 402.848 436.829C402.851 436.499 402.767 436.174 402.604 435.887C401.687 434.548 399.453 436.445 398.239 436.445C396.345 436.445 394.311 435.416 392.945 434.159C392.825 434.036 392.687 433.932 392.535 433.85C391.994 433.61 391.457 434.055 390.977 434.447L390.815 434.578C389.707 435.45 388.223 435.634 386.856 435.987C385.49 436.34 384.024 437.055 383.6 438.403C383.572 438.489 383.551 438.576 383.535 438.665C383.286 439.903 384.041 441.225 385.106 441.949Z" fill="black"/>
<path d="M385.106 442.385C386.241 443.161 387.655 443.401 389.034 443.58C390.414 443.759 391.81 443.885 393.045 444.492C394.115 445.019 395.014 445.883 396.144 446.262C397.196 446.552 398.305 446.57 399.365 446.315C400.716 446.028 401.903 445.227 402.674 444.082C403.285 443.105 403.219 441.87 403.136 440.723C403.036 439.415 402.944 438.106 402.848 436.829C402.851 436.499 402.767 436.174 402.604 435.887C401.687 434.548 399.453 436.445 398.239 436.445C396.345 436.445 394.311 435.416 392.945 434.159C392.825 434.036 392.686 433.932 392.535 433.85C391.994 433.61 391.457 434.055 390.977 434.447C391.287 435.418 391.727 436.342 392.286 437.195C392.743 437.913 393.355 438.521 394.077 438.973C394.799 439.426 395.612 439.712 396.459 439.812C397.305 439.873 398.174 439.707 398.994 439.925C399.815 440.143 400.574 440.981 400.304 441.774C400.033 442.568 399.016 442.721 398.191 442.764C397.04 442.896 395.873 442.814 394.752 442.52C394.08 442.298 393.443 441.927 392.814 441.648C390.034 440.501 386.529 441.142 384.238 439.201C384.02 439.002 383.785 438.822 383.535 438.665C382.933 439.921 384.041 441.661 385.106 442.385Z" fill="#E8EAF2"/>
<path opacity="0.05" d="M385.106 442.385C386.241 443.161 387.655 443.401 389.034 443.58C390.414 443.759 391.81 443.885 393.045 444.492C394.115 445.019 395.014 445.883 396.144 446.262C397.196 446.552 398.305 446.57 399.365 446.315C400.716 446.028 401.903 445.227 402.674 444.082C403.285 443.105 403.219 441.87 403.136 440.723C403.036 439.415 402.944 438.106 402.848 436.829C402.851 436.499 402.767 436.174 402.604 435.887C401.687 434.548 399.453 436.445 398.239 436.445C396.345 436.445 394.311 435.416 392.945 434.159C392.825 434.036 392.686 433.932 392.535 433.85C391.994 433.61 391.457 434.055 390.977 434.447C391.287 435.418 391.727 436.342 392.286 437.195C392.743 437.913 393.355 438.521 394.077 438.973C394.799 439.426 395.612 439.712 396.459 439.812C397.305 439.873 398.174 439.707 398.994 439.925C399.815 440.143 400.574 440.981 400.304 441.774C400.033 442.568 399.016 442.721 398.191 442.764C397.04 442.896 395.873 442.814 394.752 442.52C394.08 442.298 393.443 441.927 392.814 441.648C390.034 440.501 386.529 441.142 384.238 439.201C384.02 439.002 383.785 438.822 383.535 438.665C382.933 439.921 384.041 441.661 385.106 442.385Z" fill="black"/>
<path d="M415.235 357.491C416.119 361.831 415.279 366.345 412.891 370.078C412.181 371.045 411.547 372.066 410.993 373.131C410.671 373.911 410.423 374.72 410.251 375.547L408.143 384.27C407.571 386.625 406.999 389.023 407.169 391.435C407.292 393.119 407.715 395.012 406.676 396.342C406.425 396.601 406.214 396.894 406.048 397.214C405.948 397.586 405.948 397.977 406.048 398.348C407.113 404.676 407.903 411.293 405.978 417.416C404.232 422.968 404.132 429.118 402.648 434.739C402.527 435.454 402.208 436.121 401.727 436.663C401.329 436.995 400.852 437.22 400.343 437.317C398.161 437.84 395.848 437.23 393.796 436.283C392.365 435.62 390.82 434.456 390.942 432.882C391.003 432.136 391.439 431.477 391.736 430.788C392.321 429.436 392.365 427.923 392.522 426.457C392.919 422.781 394.054 419.226 394.909 415.628C395.765 412.03 396.35 408.27 395.625 404.642C394.143 397.137 391.768 389.836 388.55 382.896C388.411 382.527 388.19 382.195 387.904 381.923C387.575 381.732 387.262 381.513 386.97 381.269C386.741 380.927 386.591 380.538 386.534 380.131C386.215 378.984 385.268 378.138 384.631 377.126C383.024 374.579 383.535 371.316 383.596 368.307C383.653 365.385 383.23 362.432 383.71 359.545C384.19 356.658 385.844 353.705 388.629 352.802C390.008 352.366 391.5 352.458 392.945 352.597C400.627 353.356 408.055 354.743 415.235 357.491Z" fill="#303D5C"/>
<path opacity="0.05" d="M415.235 357.491C416.119 361.831 415.279 366.345 412.891 370.078C412.181 371.045 411.547 372.066 410.993 373.131C410.671 373.911 410.423 374.72 410.251 375.547L408.143 384.27C407.571 386.625 406.999 389.023 407.169 391.435C407.292 393.119 407.715 395.012 406.676 396.342C406.425 396.601 406.214 396.894 406.048 397.214C405.948 397.586 405.948 397.977 406.048 398.348C407.113 404.676 407.903 411.293 405.978 417.416C404.232 422.968 404.132 429.118 402.648 434.739C402.527 435.454 402.208 436.121 401.727 436.663C401.329 436.995 400.852 437.22 400.343 437.317C398.161 437.84 395.848 437.23 393.796 436.283C392.365 435.62 390.82 434.456 390.942 432.882C391.003 432.136 391.439 431.477 391.736 430.788C392.321 429.436 392.365 427.923 392.522 426.457C392.919 422.781 394.054 419.226 394.909 415.628C395.765 412.03 396.35 408.27 395.625 404.642C394.143 397.137 391.768 389.836 388.55 382.896C388.411 382.527 388.19 382.195 387.904 381.923C387.575 381.732 387.262 381.513 386.97 381.269C386.741 380.927 386.591 380.538 386.534 380.131C386.215 378.984 385.268 378.138 384.631 377.126C383.024 374.579 383.535 371.316 383.596 368.307C383.653 365.385 383.23 362.432 383.71 359.545C384.19 356.658 385.844 353.705 388.629 352.802C390.008 352.366 391.5 352.458 392.945 352.597C400.627 353.356 408.055 354.743 415.235 357.491Z" fill="black"/>
<path d="M384.085 375.835C384.11 376.972 384.239 378.105 384.469 379.219C385.816 386.779 387.254 394.317 388.781 401.833C388.917 402.487 389.047 403.141 389.218 403.778C389.785 405.872 390.779 407.826 392.138 409.518C398.492 417.434 399.042 428.926 402.486 438.473C402.722 439.118 402.953 439.781 403.202 440.405C403.824 442.022 404.534 443.605 405.327 445.146C405.42 445.37 405.571 445.566 405.764 445.713C405.979 445.818 406.219 445.863 406.458 445.844C409.56 445.862 412.624 445.167 415.414 443.811C415.81 443.662 416.145 443.384 416.365 443.022C416.471 442.73 416.505 442.418 416.466 442.11C416.37 440.217 416.252 438.259 415.349 436.593C414.758 435.6 414.022 434.7 413.166 433.924C412.961 427.975 412.23 422.055 410.984 416.234C410.316 413.268 409.487 410.272 407.763 407.764C406.493 405.915 404.668 404.088 404.891 401.855C404.991 400.873 405.402 399.652 404.603 399.077C404.254 398.824 403.73 398.793 403.503 398.431C403.407 398.262 403.354 398.072 403.35 397.877C403.185 396.346 403.28 394.798 403.63 393.298C403.922 392.318 404.151 391.32 404.315 390.31C404.393 389.804 404.367 389.287 404.237 388.791C404.108 388.295 403.879 387.831 403.564 387.427C403.52 385.386 403.564 383.271 403.538 381.234C403.457 380.075 403.552 378.91 403.822 377.78C403.979 377.248 404.214 376.738 404.332 376.192C404.769 374.234 403.695 371.888 404.961 370.335C405.489 369.694 406.305 369.371 406.995 368.904C408.35 367.919 409.334 366.505 409.788 364.892C410.235 363.29 410.5 361.643 410.578 359.981C410.615 359.629 410.615 359.274 410.578 358.921C410.554 358.74 410.505 358.562 410.434 358.394C410.041 357.521 408.981 357.164 408.038 356.937C402.048 355.503 395.909 354.786 389.75 354.8C387.472 353.251 386.189 353.805 385.224 355.45C384.69 356.45 384.259 357.502 383.937 358.59C383.5 359.924 383.47 367.378 383.037 368.717C382.492 370.457 384.107 374.012 384.085 375.835Z" fill="#303D5C"/>
<path d="M425.282 307.998C425.448 309.171 424.885 310.322 424.846 311.487C424.789 312.525 425.121 313.532 425.308 314.54C426.042 318.513 424.632 322.539 423.191 326.316C422.918 326.929 422.749 327.583 422.69 328.252C422.65 329.486 423.362 330.616 423.562 331.833C423.968 334.393 422.079 336.8 422.039 339.391C422.039 340.586 422.397 341.799 422.1 342.954C421.828 343.703 421.486 344.424 421.079 345.109C420.472 346.382 420.311 347.83 419.73 349.117C418.687 351.446 416.444 352.964 414.305 354.351C413.092 353.945 411.778 353.478 411.11 352.375C410.816 351.833 410.627 351.242 410.552 350.63C410.089 347.979 410.115 345.27 410.115 342.579C410.076 340.265 410.198 337.951 410.482 335.653C410.918 332.727 411.865 329.909 412.546 327.035C413.419 323.407 413.856 319.66 415.165 316.18C416.339 313.127 418.172 310.379 420.097 307.754C420.835 306.75 421.406 305.316 422.842 305.547C423.453 305.653 424.015 305.945 424.452 306.384C424.889 306.824 425.179 307.387 425.282 307.998Z" fill="#3F3D56"/>
<path opacity="0.05" d="M425.282 307.998C425.448 309.171 424.885 310.322 424.846 311.487C424.789 312.525 425.121 313.532 425.308 314.54C426.042 318.513 424.632 322.539 423.191 326.316C422.918 326.929 422.749 327.583 422.69 328.252C422.65 329.486 423.362 330.616 423.562 331.833C423.968 334.393 422.079 336.8 422.039 339.391C422.039 340.586 422.397 341.799 422.1 342.954C421.828 343.703 421.486 344.424 421.079 345.109C420.472 346.382 420.311 347.83 419.73 349.117C418.687 351.446 416.444 352.964 414.305 354.351C413.092 353.945 411.778 353.478 411.11 352.375C410.816 351.833 410.627 351.242 410.552 350.63C410.089 347.979 410.115 345.27 410.115 342.579C410.076 340.265 410.198 337.951 410.482 335.653C410.918 332.727 411.865 329.909 412.546 327.035C413.419 323.407 413.856 319.66 415.165 316.18C416.339 313.127 418.172 310.379 420.097 307.754C420.835 306.75 421.406 305.316 422.842 305.547C423.453 305.653 424.015 305.945 424.452 306.384C424.889 306.824 425.179 307.387 425.282 307.998Z" fill="black"/>
<path opacity="0.1" d="M394.263 282.423C395.205 283.936 395.985 285.544 396.589 287.22C397.454 287.433 398.34 287.54 399.23 287.539C402.687 287.539 405.135 285.576 407.165 283.094C407.339 282.296 408.435 281.555 408.313 280.914C408.151 280.085 407.37 280.251 406.667 280.299C404.521 280.46 402.386 280.735 400.269 281.123C399.715 281.223 394.342 282.562 394.263 282.423Z" fill="black"/>
<path d="M399.23 287.233C405.346 287.233 410.303 282.279 410.303 276.168C410.303 270.058 405.346 265.104 399.23 265.104C393.115 265.104 388.157 270.058 388.157 276.168C388.157 282.279 393.115 287.233 399.23 287.233Z" fill="#E9B1B1"/>
<path opacity="0.1" d="M385.224 355.45C387.14 355.336 389.069 355.41 390.994 355.489C392.197 355.502 393.397 355.624 394.578 355.855C396.031 356.187 397.393 356.85 398.824 357.264C401.124 357.931 403.547 357.962 405.926 358.193C407.489 358.346 409.043 358.589 410.578 358.921C410.554 358.74 410.505 358.562 410.434 358.394C410.041 357.521 408.981 357.164 408.038 356.937C402.048 355.503 395.909 354.786 389.75 354.8C387.485 353.251 386.202 353.792 385.224 355.45Z" fill="black"/>
<path d="M392.784 294.281C393.268 294.84 393.914 295.454 394.63 295.276C394.889 295.185 395.132 295.054 395.35 294.888C396.625 294.068 398.192 293.876 399.693 293.649C402.721 293.192 405.712 292.52 408.645 291.638C409.495 291.329 410.386 291.148 411.29 291.102C413.166 291.102 414.829 292.358 416.008 293.819C417.186 295.28 418.016 296.99 419.172 298.468C419.993 299.524 420.97 300.453 421.739 301.547C423.681 304.308 424.095 307.911 423.593 311.247C423.092 314.583 421.76 317.728 420.438 320.842C419.733 322.646 418.872 324.384 417.863 326.036C418.299 328.57 418.072 331.471 416.868 333.743C416.475 334.484 415.995 335.204 415.864 336.033C415.804 336.593 415.828 337.159 415.934 337.712L416.497 341.72C416.667 342.941 416.837 344.162 417.06 345.37C417.466 347.59 418.02 349.998 416.99 352.004C415.759 354.407 417.055 357.486 416.728 360.169C413.264 358.83 409.635 357.969 405.939 357.608C403.56 357.373 401.138 357.342 398.837 356.675C397.406 356.239 396.044 355.598 394.591 355.266C393.41 355.035 392.21 354.913 391.007 354.9C388.354 354.795 385.683 354.686 383.055 355.079C382.841 355.109 382.584 355.127 382.457 354.957C382.399 354.862 382.371 354.753 382.374 354.643C382.335 353.659 382.571 352.683 383.055 351.825C383.391 351.237 383.854 350.656 383.841 349.976C383.818 349.66 383.739 349.35 383.609 349.06L382.448 345.942C381.466 343.325 381.933 340.272 381.423 337.533C381.024 335.383 380.769 333.209 380.659 331.026C380.563 329.159 380.62 327.14 381.75 325.648C382.087 325.29 382.38 324.893 382.623 324.466C382.782 324.013 382.85 323.533 382.824 323.053C382.85 319.32 382.748 315.588 382.518 311.858C383.5 310.113 384.522 308.29 385.508 306.528C386.651 304.474 387.808 302.38 388.271 300.078C388.576 298.551 388.568 296.985 388.786 295.446C388.777 295.202 388.826 294.96 388.928 294.739C389.03 294.518 389.183 294.324 389.375 294.173C389.566 294.022 389.79 293.917 390.029 293.869C390.268 293.82 390.515 293.829 390.75 293.893C391.444 293.919 392.129 294.05 392.784 294.281Z" fill="#3F3D56"/>
<path opacity="0.1" d="M352.241 287.635C352.938 288.17 353.768 288.506 354.641 288.607C355.78 288.686 358.207 288.014 358.919 287.037C359.216 286.545 359.358 285.975 359.324 285.402C359.171 285.35 359.011 285.319 358.849 285.31C357.61 285.169 356.358 285.219 355.134 285.458C354.52 285.581 353.942 285.841 353.442 286.219C352.943 286.596 352.535 287.082 352.249 287.639C352.249 287.639 352.245 287.63 352.241 287.635Z" fill="black"/>
<path d="M389.087 311.565C388.41 312.403 387.707 313.266 386.751 313.746C385.652 314.317 384.355 314.331 383.116 314.304C378.013 314.196 372.931 313.637 367.927 312.634C367.358 312.539 366.798 312.393 366.255 312.198C365.653 311.911 365.085 311.557 364.562 311.142C362.916 309.96 361.245 308.752 359.992 307.156C358.506 305.233 357.572 302.941 357.29 300.527C356.099 299.428 355.466 297.871 354.872 296.366C354.575 295.727 354.388 295.043 354.318 294.342C354.288 293.627 354.755 292.877 354.628 292.162C354.401 290.949 353.788 289.842 352.882 289.004C352.681 288.871 352.528 288.677 352.446 288.45C352.42 288.264 352.455 288.074 352.546 287.909C352.833 287.353 353.241 286.869 353.741 286.491C354.24 286.114 354.818 285.853 355.431 285.729C356.656 285.492 357.91 285.442 359.15 285.58C359.562 285.658 359.967 285.766 360.363 285.903L361.236 288.18C361.351 288.563 361.544 288.918 361.803 289.222C361.994 289.398 362.199 289.558 362.414 289.702C362.852 290.073 363.192 290.545 363.405 291.077C363.618 291.609 363.697 292.185 363.637 292.755C364.419 293.058 365.057 293.649 365.419 294.405C365.782 295.162 365.842 296.029 365.588 296.828C366.239 296.968 366.843 297.273 367.343 297.712C367.842 298.152 368.221 298.713 368.442 299.34C368.505 299.626 368.633 299.894 368.817 300.121C369.102 300.339 369.455 300.449 369.812 300.431C370.79 300.488 371.646 301.259 372.536 300.841C373.544 300.374 374.67 300.222 375.766 300.405C375.992 300.455 376.224 300.476 376.455 300.466C376.654 300.431 376.845 300.364 377.023 300.269C377.422 300.036 377.855 299.865 378.306 299.764C378.532 299.717 378.767 299.736 378.982 299.82C379.198 299.903 379.384 300.047 379.519 300.235C379.834 299.894 380.017 299.458 380.301 299.092C380.426 298.899 380.603 298.744 380.811 298.645C381.019 298.546 381.25 298.506 381.479 298.529C381.187 298.268 381.479 297.744 381.872 297.657C382.265 297.628 382.66 297.643 383.05 297.701C384.072 297.701 384.857 296.767 385.852 296.523C386.769 296.301 387.987 296.567 388.471 295.751C388.637 295.463 388.672 295.071 388.956 294.879C389.146 294.783 389.364 294.759 389.571 294.809C390.221 294.892 390.853 295.083 391.439 295.376C392.399 299.122 391.875 303.013 391.164 306.816C390.896 308.553 390.18 310.189 389.087 311.565Z" fill="#3F3D56"/>
<path opacity="0.1" d="M389.113 325.007L393.883 334.602C393.368 333.73 392.282 333.368 391.422 332.801C390.332 332.015 389.51 330.912 389.069 329.643C388.636 328.379 388.335 327.074 388.17 325.749C388.074 325.138 387.869 324.283 388.17 323.734C388.716 323.847 388.89 324.545 389.113 325.007Z" fill="black"/>
<path opacity="0.1" d="M402.835 333.154C403.913 334.218 405.227 334.999 406.414 335.941C409.177 338.122 411.15 341.175 413.074 344.127C413.619 344.9 414.076 345.731 414.436 346.605C414.209 346.797 413.873 346.605 413.651 346.4L409.906 343.111C409.446 342.737 409.027 342.314 408.658 341.851C408.007 340.979 407.719 339.884 407.13 338.968C406.486 338.089 405.719 337.308 404.852 336.648C403.979 335.911 400.051 332.574 401.002 331.275C401.7 331.628 402.268 332.592 402.835 333.154Z" fill="black"/>
<path d="M394.656 291.503C395.884 290.824 397.228 290.38 398.619 290.195C399.444 290.007 400.294 289.947 401.137 290.016C401.918 290.112 402.665 290.413 403.45 290.452C404.55 290.513 405.607 290.068 406.672 289.776C407.737 289.484 408.963 289.375 409.858 290.016C410.048 290.205 410.289 290.333 410.552 290.387C410.824 290.354 411.076 290.229 411.267 290.033C412.021 289.494 412.936 289.227 413.862 289.277C414.787 289.326 415.669 289.688 416.361 290.304C418.391 292.205 418.164 295.921 420.542 297.365C421.197 297.762 422.035 297.971 422.419 298.638C422.515 298.859 422.629 299.072 422.76 299.275C422.919 299.449 423.114 299.587 423.331 299.681C424.022 299.99 424.68 300.369 425.295 300.81C425.601 301.033 425.858 301.315 426.052 301.639C426.245 301.964 426.371 302.324 426.421 302.699C426.431 303.249 426.313 303.794 426.077 304.291C424.911 307.144 422.89 309.566 420.292 311.226C417.694 312.886 414.645 313.703 411.564 313.563C411.018 313.589 410.479 313.421 410.045 313.088C409.818 312.831 409.637 312.535 409.513 312.215C408.391 309.873 406.292 308.142 404.956 305.913C404.162 304.583 403.647 303.1 402.826 301.792C401.569 299.807 399.662 298.342 397.794 296.924C396.742 296.122 395.568 295.28 394.245 295.337C393.067 295.385 392.207 295.45 392.639 294.002C392.993 292.956 393.708 292.07 394.656 291.503Z" fill="#3F3D56"/>
<path opacity="0.05" d="M394.656 291.503C395.884 290.824 397.228 290.38 398.619 290.195C399.444 290.007 400.294 289.947 401.137 290.016C401.918 290.112 402.665 290.413 403.45 290.452C404.55 290.513 405.607 290.068 406.672 289.776C407.737 289.484 408.963 289.375 409.858 290.016C410.048 290.205 410.289 290.333 410.552 290.387C410.824 290.354 411.076 290.229 411.267 290.033C412.021 289.494 412.936 289.227 413.862 289.277C414.787 289.326 415.669 289.688 416.361 290.304C418.391 292.205 418.164 295.921 420.542 297.365C421.197 297.762 422.035 297.971 422.419 298.638C422.515 298.859 422.629 299.072 422.76 299.275C422.919 299.449 423.114 299.587 423.331 299.681C424.022 299.99 424.68 300.369 425.295 300.81C425.601 301.033 425.858 301.315 426.052 301.639C426.245 301.964 426.371 302.324 426.421 302.699C426.431 303.249 426.313 303.794 426.077 304.291C424.911 307.144 422.89 309.566 420.292 311.226C417.694 312.886 414.645 313.703 411.564 313.563C411.018 313.589 410.479 313.421 410.045 313.088C409.818 312.831 409.637 312.535 409.513 312.215C408.391 309.873 406.292 308.142 404.956 305.913C404.162 304.583 403.647 303.1 402.826 301.792C401.569 299.807 399.662 298.342 397.794 296.924C396.742 296.122 395.568 295.28 394.245 295.337C393.067 295.385 392.207 295.45 392.639 294.002C392.993 292.956 393.708 292.07 394.656 291.503Z" fill="black"/>
<path d="M388.89 451.884C389.693 452.634 390.798 452.961 391.867 453.193C394.316 453.671 396.795 453.977 399.287 454.108L401.705 454.292C404.066 454.47 406.432 454.654 408.806 454.662C411.732 454.673 414.654 454.421 417.535 453.908C417.649 453.919 417.765 453.904 417.872 453.863C417.98 453.822 418.076 453.757 418.154 453.672C418.231 453.587 418.288 453.486 418.319 453.375C418.351 453.265 418.356 453.148 418.334 453.036C418.282 450.088 417.923 447.155 417.26 444.282C416.985 443.1 414.868 445.748 414.772 445.857C414.554 446.166 414.266 446.419 413.932 446.597C413.597 446.775 413.226 446.873 412.848 446.882C410.412 447.012 407.684 445.534 405.746 444.217C405.333 443.909 404.895 443.636 404.437 443.401C404.099 443.25 403.74 443.148 403.372 443.1C402.119 442.982 400.858 443.237 399.749 443.833C398.296 444.553 397.017 445.578 395.577 446.332C394.406 446.934 393.141 447.334 391.836 447.514C390.527 447.697 388.947 447.784 388.27 448.923C387.69 449.865 388.092 451.138 388.89 451.884Z" fill="#3F3D56"/>
<path d="M388.89 452.32C389.694 453.07 390.798 453.397 391.867 453.629C394.316 454.107 396.795 454.413 399.287 454.545L401.705 454.728C404.066 454.907 406.432 455.09 408.806 455.098C411.733 455.109 414.654 454.857 417.535 454.344C417.668 454.339 417.798 454.308 417.917 454.251C418.036 454.194 418.143 454.112 418.229 454.012C418.457 453.711 418.64 453.377 418.771 453.022C418.718 450.078 417.924 447.139 417.26 444.269C416.985 443.087 414.869 445.735 414.773 445.844C414.554 446.153 414.266 446.406 413.932 446.584C413.598 446.762 413.226 446.86 412.848 446.868C410.412 446.999 407.684 445.521 405.747 444.204C405.334 443.896 404.896 443.623 404.437 443.388C404.099 443.236 403.74 443.135 403.372 443.087C403.686 444.832 406.201 446.951 407.497 447.597C410.116 448.905 413.241 448.251 416.169 448.404C416.384 448.394 416.598 448.446 416.785 448.552C417.134 448.783 417.156 449.28 417.147 449.699C417.121 450.397 417.033 451.217 416.427 451.574C416.123 451.718 415.789 451.787 415.453 451.775C408.237 452.089 401.008 451.836 393.831 451.016C392.624 450.938 391.436 450.675 390.309 450.235C389.572 449.893 388.885 449.453 388.266 448.927C387.324 449.642 388.092 451.574 388.89 452.32Z" fill="#E8EAF2"/>
<path d="M395.175 275.301C395.214 276.527 394.436 278.907 396.57 278.243C397.839 277.85 398.2 276.227 399.813 276.588C401.425 276.948 401.794 279.09 402.342 280.488C402.789 281.599 403.479 282.577 404.354 283.338C405.229 284.099 406.263 284.62 407.366 284.856C407.822 284.973 408.297 284.973 408.753 284.856C409.791 284.538 410.382 283.383 410.808 282.312C411.176 281.402 411.481 280.464 411.721 279.506C411.885 278.834 411.996 278.149 412.051 277.457C412.085 276.99 412.085 276.521 412.051 276.054C411.86 273.248 411.423 269.616 409.532 267.694C407.642 265.772 405.943 264.236 403.674 262.87C402.342 262.068 401.071 262.168 400.095 262.168C399.268 261.986 397.965 262.116 396.57 262.493C395.175 262.87 394.966 263.195 393.958 263.679C393.545 263.898 393.165 264.183 392.833 264.526C392.36 264.999 392.022 265.608 391.859 266.28C391.451 268.08 392.515 269.703 393.385 271.13C394.163 272.378 395.119 273.721 395.175 275.301Z" fill="#624F4F"/>
<path opacity="0.1" d="M358.888 300.605C359.346 299.449 361.267 296.266 360.713 295.167C360.136 295.987 359.644 296.863 359.246 297.783C358.884 298.673 359.181 299.868 358.888 300.605Z" fill="black"/>
<path opacity="0.1" d="M393.08 272.143C392.207 270.813 391.133 269.299 391.544 267.616C391.747 266.877 392.185 266.223 392.792 265.754C392.652 266 392.545 266.264 392.473 266.539C392.063 268.222 393.137 269.735 394.01 271.066C394.787 272.243 395.756 273.499 395.799 274.969C395.843 276.112 395.062 278.336 397.205 277.712C398.479 277.346 398.841 275.833 400.461 276.168C402.08 276.504 402.451 278.497 403.001 279.806C403.449 280.842 404.143 281.754 405.022 282.464C405.9 283.173 406.938 283.659 408.046 283.879C408.503 283.989 408.978 283.989 409.434 283.879C409.674 283.819 409.9 283.716 410.102 283.574C409.777 284.229 409.209 284.73 408.518 284.97C408.062 285.079 407.586 285.079 407.13 284.97C406.022 284.749 404.984 284.263 404.105 283.554C403.226 282.844 402.533 281.932 402.084 280.896C401.534 279.588 401.176 277.603 399.544 277.259C397.912 276.914 397.563 278.436 396.288 278.803C394.145 279.426 394.926 277.202 394.883 276.059C394.826 274.577 393.857 273.321 393.08 272.143Z" fill="#624F4F"/>
<path opacity="0.1" d="M405.463 262.888C405.398 263.003 405.362 263.131 405.358 263.263C405.358 263.376 405.384 263.488 405.432 263.591C405.48 263.693 405.55 263.784 405.637 263.856C405.841 264.005 406.084 264.091 406.336 264.105C406.516 264.13 406.699 264.145 406.881 264.149C407.126 264.168 407.372 264.126 407.597 264.026C407.641 264.001 407.683 263.974 407.724 263.944C407.641 263.858 407.57 263.763 407.51 263.66C407.47 263.691 407.427 263.682 407.261 263.66C406.965 263.644 406.672 263.594 406.388 263.512C406.268 263.477 406.154 263.422 406.052 263.35C405.902 263.222 405.792 263.054 405.733 262.866L405.463 262.888Z" fill="black"/>
<path opacity="0.1" d="M355.785 478C365.668 478 373.68 476.901 373.68 475.545C373.68 474.188 365.668 473.089 355.785 473.089C345.902 473.089 337.89 474.188 337.89 475.545C337.89 476.901 345.902 478 355.785 478Z" fill="#00C896"/>
<path d="M363.038 472.483C363.841 471.831 364.426 470.95 364.714 469.958C364.928 468.954 364.501 467.755 363.545 467.389C362.471 466.979 361.323 467.72 360.455 468.475C359.586 469.229 358.587 470.08 357.447 469.923C358.033 469.393 358.472 468.72 358.719 467.97C358.967 467.22 359.016 466.419 358.862 465.644C358.814 465.323 358.678 465.02 358.469 464.772C357.875 464.135 356.793 464.406 356.077 464.907C353.807 466.503 353.174 469.583 353.166 472.356C352.934 471.358 353.126 470.315 353.122 469.303C353.118 468.292 352.834 467.123 351.97 466.586C351.434 466.3 350.832 466.159 350.224 466.176C349.203 466.137 348.068 466.237 347.37 466.983C346.497 467.912 346.728 469.465 347.483 470.472C348.238 471.48 349.382 472.13 350.434 472.836C351.281 473.338 352.003 474.026 352.546 474.847C352.61 474.962 352.662 475.083 352.703 475.209H359.097C360.527 474.48 361.853 473.564 363.038 472.483Z" fill="#00C896"/>
<path opacity="0.1" d="M141.766 462.434C148.791 462.434 154.485 461.653 154.485 460.69C154.485 459.726 148.791 458.945 141.766 458.945C134.742 458.945 129.048 459.726 129.048 460.69C129.048 461.653 134.742 462.434 141.766 462.434Z" fill="#00C896"/>
<path d="M145.241 454.976C146.043 454.322 146.627 453.44 146.917 452.447C147.131 451.448 146.707 450.244 145.747 449.878C144.673 449.468 143.525 450.214 142.657 450.964C141.788 451.714 140.789 452.569 139.65 452.412C140.236 451.882 140.675 451.209 140.923 450.459C141.171 449.709 141.219 448.908 141.064 448.133C141.017 447.812 140.881 447.509 140.671 447.261C140.077 446.624 138.995 446.895 138.283 447.396C136.014 448.992 135.381 452.072 135.368 454.845C135.137 453.847 135.329 452.804 135.324 451.792C135.32 450.781 135.036 449.612 134.172 449.075C133.636 448.788 133.034 448.647 132.426 448.665C131.405 448.626 130.27 448.731 129.572 449.472C128.699 450.401 128.93 451.954 129.685 452.961C130.44 453.969 131.584 454.623 132.64 455.325C133.485 455.829 134.206 456.516 134.748 457.336C134.812 457.451 134.864 457.573 134.905 457.698H141.299C142.729 456.971 144.055 456.056 145.241 454.976Z" fill="#00C896"/>
<path d="M449.755 423.4C449.755 423.4 452.155 426.536 448.65 431.25C445.146 435.965 442.256 439.973 443.413 442.926C443.413 442.926 448.698 434.138 453.015 434.015C457.332 433.893 454.49 428.686 449.755 423.4Z" fill="#00C896"/>
<path opacity="0.1" d="M449.755 423.4C449.965 423.704 450.131 424.035 450.248 424.386C454.447 429.314 456.681 433.915 452.644 434.029C448.886 434.138 444.377 440.854 443.295 442.551C443.33 442.683 443.374 442.812 443.426 442.939C443.426 442.939 448.711 434.151 453.028 434.029C457.345 433.906 454.49 428.686 449.755 423.4Z" fill="black"/>
<path d="M454.215 427.395C454.215 428.498 454.089 429.392 453.936 429.392C453.783 429.392 453.661 428.498 453.661 427.395C453.661 426.291 453.814 426.81 453.967 426.81C454.119 426.81 454.215 426.291 454.215 427.395Z" fill="#FFD037"/>
<path d="M455.743 428.712C454.774 429.24 453.931 429.558 453.857 429.423C453.783 429.288 454.508 428.756 455.477 428.228C456.445 427.7 456.066 428.084 456.14 428.228C456.214 428.372 456.712 428.184 455.743 428.712Z" fill="#FFD037"/>
<path d="M437.093 423.4C437.093 423.4 434.692 426.536 438.197 431.25C441.702 435.965 444.591 439.973 443.435 442.926C443.435 442.926 438.145 434.138 433.832 434.015C429.52 433.893 432.362 428.686 437.093 423.4Z" fill="#00C896"/>
<path opacity="0.1" d="M437.093 423.4C436.883 423.704 436.717 424.035 436.6 424.386C432.401 429.314 430.166 433.915 434.203 434.029C437.961 434.138 442.47 440.854 443.552 442.551C443.517 442.682 443.475 442.812 443.426 442.939C443.426 442.939 438.136 434.151 433.824 434.029C429.511 433.906 432.362 428.686 437.093 423.4Z" fill="black"/>
<path d="M432.632 427.395C432.632 428.498 432.759 429.392 432.912 429.392C433.064 429.392 433.187 428.498 433.187 427.395C433.187 426.291 433.034 426.81 432.881 426.81C432.728 426.81 432.632 426.291 432.632 427.395Z" fill="#FFD037"/>
<path d="M431.105 428.712C432.074 429.24 432.92 429.558 432.99 429.423C433.06 429.288 432.34 428.756 431.371 428.228C430.402 427.7 430.782 428.084 430.708 428.228C430.633 428.372 430.136 428.184 431.105 428.712Z" fill="#FFD037"/>
<path d="M433.396 442.529C433.396 442.529 440.1 442.32 442.125 440.885C444.15 439.45 452.439 437.731 452.941 440.012C453.443 442.293 463.014 451.478 455.446 451.539C447.878 451.601 437.861 450.362 435.845 449.136C433.828 447.911 433.396 442.529 433.396 442.529Z" fill="#A8A8A8"/>
<path opacity="0.2" d="M455.577 450.759C448.009 450.82 437.992 449.581 435.975 448.356C434.439 447.422 433.828 444.069 433.623 442.52H433.396C433.396 442.52 433.832 447.92 435.84 449.15C437.848 450.379 447.873 451.614 455.442 451.553C457.624 451.553 458.379 450.759 458.34 449.612C458.034 450.314 457.201 450.746 455.577 450.759Z" fill="black"/>
</g>
<defs>
<linearGradient id="paint0_linear" x1="13.4347" y1="424.123" x2="621.743" y2="50.9982" gradientUnits="userSpaceOnUse">
<stop stop-color="#2F4858"/>
<stop offset="1" stop-color="#00C896" stop-opacity="0.8"/>
</linearGradient>
<linearGradient id="paint1_linear" x1="387.799" y1="454.662" x2="387.799" y2="260.987" gradientUnits="userSpaceOnUse">
<stop stop-color="#808080" stop-opacity="0.25"/>
<stop offset="0.54" stop-color="#808080" stop-opacity="0.12"/>
<stop offset="1" stop-color="#808080" stop-opacity="0.1"/>
</linearGradient>
<clipPath id="clip0">
<rect width="440" height="340" fill="white" transform="translate(129 138)"/>
</clipPath>
</defs>
</svg>
