<svg width="111" height="46" viewBox="0 0 111 46" fill="none" xmlns="http://www.w3.org/2000/svg">
<path d="M6.876 4.4C7.968 4.4 8.916 4.58 9.72 4.94C10.536 5.3 11.16 5.816 11.592 6.488C12.024 7.16 12.24 7.958 12.24 8.882C12.24 9.794 12.024 10.592 11.592 11.276C11.16 11.948 10.536 12.464 9.72 12.824C8.916 13.184 7.968 13.364 6.876 13.364H4.032V17H1.692V4.4H6.876ZM6.768 11.384C7.788 11.384 8.562 11.168 9.09 10.736C9.618 10.304 9.882 9.686 9.882 8.882C9.882 8.078 9.618 7.46 9.09 7.028C8.562 6.596 7.788 6.38 6.768 6.38H4.032V11.384H6.768ZM20.6385 17.18C19.3545 17.18 18.1965 16.904 17.1645 16.352C16.1325 15.788 15.3225 15.014 14.7345 14.03C14.1465 13.034 13.8525 11.924 13.8525 10.7C13.8525 9.476 14.1465 8.372 14.7345 7.388C15.3225 6.392 16.1325 5.618 17.1645 5.066C18.1965 4.502 19.3545 4.22 20.6385 4.22C21.9225 4.22 23.0805 4.502 24.1125 5.066C25.1445 5.618 25.9545 6.386 26.5425 7.37C27.1305 8.354 27.4245 9.464 27.4245 10.7C27.4245 11.936 27.1305 13.046 26.5425 14.03C25.9545 15.014 25.1445 15.788 24.1125 16.352C23.0805 16.904 21.9225 17.18 20.6385 17.18ZM20.6385 15.128C21.4785 15.128 22.2345 14.942 22.9065 14.57C23.5785 14.186 24.1065 13.658 24.4905 12.986C24.8745 12.302 25.0665 11.54 25.0665 10.7C25.0665 9.86 24.8745 9.104 24.4905 8.432C24.1065 7.748 23.5785 7.22 22.9065 6.848C22.2345 6.464 21.4785 6.272 20.6385 6.272C19.7985 6.272 19.0425 6.464 18.3705 6.848C17.6985 7.22 17.1705 7.748 16.7865 8.432C16.4025 9.104 16.2105 9.86 16.2105 10.7C16.2105 11.54 16.4025 12.302 16.7865 12.986C17.1705 13.658 17.6985 14.186 18.3705 14.57C19.0425 14.942 19.7985 15.128 20.6385 15.128ZM38.1489 17L35.5749 13.31C35.4669 13.322 35.3049 13.328 35.0889 13.328H32.2449V17H29.9049V4.4H35.0889C36.1809 4.4 37.1289 4.58 37.9329 4.94C38.7489 5.3 39.3729 5.816 39.8049 6.488C40.2369 7.16 40.4529 7.958 40.4529 8.882C40.4529 9.83 40.2189 10.646 39.7509 11.33C39.2949 12.014 38.6349 12.524 37.7709 12.86L40.6689 17H38.1489ZM38.0949 8.882C38.0949 8.078 37.8309 7.46 37.3029 7.028C36.7749 6.596 36.0009 6.38 34.9809 6.38H32.2449V11.402H34.9809C36.0009 11.402 36.7749 11.186 37.3029 10.754C37.8309 10.31 38.0949 9.686 38.0949 8.882ZM45.4511 6.38H41.2751V4.4H51.9671V6.38H47.7911V17H45.4511V6.38ZM56.0633 6.362V10.196H62.1473V12.176H56.0633V17H53.7233V4.4H62.9213V6.362H56.0633ZM70.9296 17.18C69.6456 17.18 68.4876 16.904 67.4556 16.352C66.4236 15.788 65.6136 15.014 65.0256 14.03C64.4376 13.034 64.1436 11.924 64.1436 10.7C64.1436 9.476 64.4376 8.372 65.0256 7.388C65.6136 6.392 66.4236 5.618 67.4556 5.066C68.4876 4.502 69.6456 4.22 70.9296 4.22C72.2136 4.22 73.3716 4.502 74.4036 5.066C75.4356 5.618 76.2456 6.386 76.8336 7.37C77.4216 8.354 77.7156 9.464 77.7156 10.7C77.7156 11.936 77.4216 13.046 76.8336 14.03C76.2456 15.014 75.4356 15.788 74.4036 16.352C73.3716 16.904 72.2136 17.18 70.9296 17.18ZM70.9296 15.128C71.7696 15.128 72.5256 14.942 73.1976 14.57C73.8696 14.186 74.3976 13.658 74.7816 12.986C75.1656 12.302 75.3576 11.54 75.3576 10.7C75.3576 9.86 75.1656 9.104 74.7816 8.432C74.3976 7.748 73.8696 7.22 73.1976 6.848C72.5256 6.464 71.7696 6.272 70.9296 6.272C70.0896 6.272 69.3336 6.464 68.6616 6.848C67.9896 7.22 67.4616 7.748 67.0776 8.432C66.6936 9.104 66.5016 9.86 66.5016 10.7C66.5016 11.54 66.6936 12.302 67.0776 12.986C67.4616 13.658 67.9896 14.186 68.6616 14.57C69.3336 14.942 70.0896 15.128 70.9296 15.128ZM80.1959 4.4H82.5359V15.02H89.1239V17H80.1959V4.4ZM90.9713 4.4H93.3113V17H90.9713V4.4ZM102.605 17.18C101.321 17.18 100.163 16.904 99.1313 16.352C98.0993 15.788 97.2893 15.014 96.7013 14.03C96.1133 13.034 95.8193 11.924 95.8193 10.7C95.8193 9.476 96.1133 8.372 96.7013 7.388C97.2893 6.392 98.0993 5.618 99.1313 5.066C100.163 4.502 101.321 4.22 102.605 4.22C103.889 4.22 105.047 4.502 106.079 5.066C107.111 5.618 107.921 6.386 108.509 7.37C109.097 8.354 109.391 9.464 109.391 10.7C109.391 11.936 109.097 13.046 108.509 14.03C107.921 15.014 107.111 15.788 106.079 16.352C105.047 16.904 103.889 17.18 102.605 17.18ZM102.605 15.128C103.445 15.128 104.201 14.942 104.873 14.57C105.545 14.186 106.073 13.658 106.457 12.986C106.841 12.302 107.033 11.54 107.033 10.7C107.033 9.86 106.841 9.104 106.457 8.432C106.073 7.748 105.545 7.22 104.873 6.848C104.201 6.464 103.445 6.272 102.605 6.272C101.765 6.272 101.009 6.464 100.337 6.848C99.6653 7.22 99.1373 7.748 98.7533 8.432C98.3693 9.104 98.1773 9.86 98.1773 10.7C98.1773 11.54 98.3693 12.302 98.7533 12.986C99.1373 13.658 99.6653 14.186 100.337 14.57C101.009 14.942 101.765 15.128 102.605 15.128Z" fill="black"/>
<line y1="-2.5" x2="58.5235" y2="-2.5" transform="matrix(0.939793 0.341743 -0.875907 0.482479 0 26)" stroke="#00C896" stroke-width="5"/>
<line y1="-2.5" x2="58.5235" y2="-2.5" transform="matrix(-0.939793 0.341743 0.875907 0.482479 110 26)" stroke="#00C896" stroke-width="5"/>
</svg>
