<svg width="128" height="128" viewBox="0 0 128 128" fill="none" xmlns="http://www.w3.org/2000/svg">
<circle cx="64" cy="64" r="64" fill="#00C896"/>
<path d="M56.2848 67.1731C57.027 67.9178 58.2299 67.9178 58.9721 67.1731L60.3152 65.8257C61.0574 65.081 61.0574 63.8741 60.3152 63.1295L56.0734 58.875L60.314 54.6193C61.0562 53.8747 61.0562 52.6678 60.314 51.9231L58.9709 50.5757C58.2287 49.831 57.0258 49.831 56.2836 50.5757L49.3557 57.5263C48.6136 58.271 48.6136 59.4779 49.3557 60.2225L56.2848 67.1731V67.1731ZM67.686 65.8269L69.0291 67.1743C69.7713 67.919 70.9742 67.919 71.7164 67.1743L78.6443 60.2237C79.3864 59.479 79.3864 58.2721 78.6443 57.5275L71.7164 50.5769C70.9742 49.8322 69.7713 49.8322 69.0291 50.5769L67.686 51.9243C66.9438 52.669 66.9438 53.8759 67.686 54.6205L71.9266 58.875L67.686 63.1307C66.9438 63.8753 66.9438 65.0822 67.686 65.8269V65.8269ZM100.1 85.5625H71.3079C71.22 87.9227 69.5611 89.375 67.42 89.375H60.2C57.9806 89.375 56.2789 87.2936 56.3086 85.5625H27.9C26.855 85.5625 26 86.4203 26 87.4688V89.375C26 93.5688 29.42 97 33.6 97H94.4C98.58 97 102 93.5688 102 89.375V87.4688C102 86.4203 101.145 85.5625 100.1 85.5625ZM94.4 41.7188C94.4 38.5734 91.835 36 88.7 36H39.3C36.165 36 33.6 38.5734 33.6 41.7188V81.75H94.4V41.7188ZM86.8 74.125H41.2V43.625H86.8V74.125Z" fill="white"/>
</svg>
