<svg width="128" height="128" viewBox="0 0 128 128" fill="none" xmlns="http://www.w3.org/2000/svg">
<circle cx="64" cy="64" r="64" fill="#00C896"/>
<g clip-path="url(#clip0)">
<path d="M87.1641 43.6328L76.2396 32.8176C75.0677 31.6574 73.4792 31 71.8255 31H45.25C41.7995 31.0129 39 33.7844 39 37.2004V90.8254C39 94.2414 41.7995 97.0129 45.25 97.0129H82.75C86.2005 97.0129 89 94.2414 89 90.8254V48.0156C89 46.3785 88.3359 44.793 87.1641 43.6328ZM82.2422 47.5129H72.3333V37.7031L82.2422 47.5129ZM45.25 90.8254V37.2004H66.0833V50.6066C66.0833 52.3211 67.4766 53.7004 69.2083 53.7004H82.75V90.8254H45.25ZM49.4167 84.6379H78.5833V68.1379L75.5234 65.1086C74.9115 64.5027 73.9219 64.5027 73.3099 65.1086L61.9167 76.3879L56.7734 71.2961C56.1615 70.6902 55.1719 70.6902 54.5599 71.2961L49.4167 76.3879V84.6379ZM55.6667 53.7004C52.2161 53.7004 49.4167 56.4719 49.4167 59.8879C49.4167 63.3039 52.2161 66.0754 55.6667 66.0754C59.1172 66.0754 61.9167 63.3039 61.9167 59.8879C61.9167 56.4719 59.1172 53.7004 55.6667 53.7004Z" fill="white"/>
</g>
<defs>
<clipPath id="clip0">
<rect width="50" height="66" fill="white" transform="matrix(1 0 0 -1 39 97)"/>
</clipPath>
</defs>
</svg>
