<svg width="57" height="57" viewBox="0 0 57 57" fill="none" xmlns="http://www.w3.org/2000/svg">
<circle cx="28.3342" cy="28.3342" r="28.3342" fill="#00C896"/>
<path d="M24.2409 36.0091C24.2409 36.1186 24.1134 36.2062 23.9526 36.2062C23.7696 36.2226 23.642 36.135 23.642 36.0091C23.642 35.8997 23.7696 35.8121 23.9304 35.8121C24.0968 35.7957 24.2409 35.8832 24.2409 36.0091ZM22.5162 35.7628C22.4774 35.8723 22.5883 35.9982 22.7547 36.031C22.8989 36.0858 23.0652 36.031 23.0985 35.9216C23.1318 35.8121 23.0264 35.6862 22.86 35.6369C22.7159 35.5986 22.555 35.6533 22.5162 35.7628ZM24.9674 35.6698C24.8066 35.7081 24.6957 35.8121 24.7123 35.938C24.729 36.0475 24.8732 36.1186 25.0395 36.0803C25.2004 36.042 25.3113 35.938 25.2946 35.8285C25.278 35.7245 25.1283 35.6533 24.9674 35.6698ZM28.6165 14.6941C20.9246 14.6941 15.0405 20.458 15.0405 28.0502C15.0405 34.1207 18.9115 39.3153 24.4406 41.1436C25.1504 41.2695 25.4 40.837 25.4 40.4813C25.4 40.1419 25.3834 38.2698 25.3834 37.1203C25.3834 37.1203 21.5013 37.9414 20.6861 35.4891C20.6861 35.4891 20.0539 33.8962 19.1444 33.4857C19.1444 33.4857 17.8744 32.6263 19.2331 32.6427C19.2331 32.6427 20.614 32.7522 21.3738 34.055C22.5883 36.1679 24.6236 35.5603 25.4166 35.199C25.5442 34.3232 25.9047 33.7156 26.304 33.3543C23.2039 33.015 20.0761 32.5716 20.0761 27.3058C20.0761 25.8005 20.4976 25.0451 21.3849 24.0817C21.2407 23.7259 20.7693 22.2589 21.5291 20.365C22.6881 20.0092 25.3556 21.8429 25.3556 21.8429C26.4648 21.5364 27.6571 21.3776 28.8384 21.3776C30.0196 21.3776 31.212 21.5364 32.3211 21.8429C32.3211 21.8429 34.9886 20.0037 36.1477 20.365C36.9075 22.2644 36.4361 23.7259 36.2919 24.0817C37.1792 25.0506 37.7227 25.8059 37.7227 27.3058C37.7227 32.588 34.4562 33.0095 31.3561 33.3543C31.8664 33.7868 32.2989 34.6078 32.2989 35.8942C32.2989 37.7389 32.2823 40.0214 32.2823 40.4703C32.2823 40.8261 32.5374 41.2585 33.2417 41.1326C38.7875 39.3153 42.5475 34.1207 42.5475 28.0502C42.5475 20.458 36.3085 14.6941 28.6165 14.6941ZM20.431 33.5733C20.3589 33.628 20.3755 33.7539 20.4698 33.8579C20.5586 33.9455 20.6861 33.9838 20.7582 33.9127C20.8303 33.8579 20.8137 33.732 20.7194 33.628C20.6307 33.5404 20.5031 33.5021 20.431 33.5733ZM19.8321 33.1299C19.7932 33.2011 19.8487 33.2887 19.9596 33.3434C20.0483 33.3981 20.1593 33.3817 20.1981 33.3051C20.2369 33.2339 20.1814 33.1463 20.0705 33.0916C19.9596 33.0588 19.8709 33.0752 19.8321 33.1299ZM21.6289 35.0786C21.5402 35.1498 21.5734 35.314 21.701 35.418C21.8285 35.5439 21.9894 35.5603 22.0615 35.4727C22.1336 35.4015 22.1003 35.2373 21.9894 35.1333C21.8674 35.0074 21.701 34.991 21.6289 35.0786ZM20.9967 34.2739C20.9079 34.3287 20.9079 34.471 20.9967 34.5969C21.0854 34.7228 21.2351 34.7775 21.3072 34.7228C21.396 34.6516 21.396 34.5093 21.3072 34.3834C21.2296 34.2575 21.0854 34.2028 20.9967 34.2739Z" fill="white"/>
</svg>
