<svg width="58" height="57" viewBox="0 0 58 57" fill="none" xmlns="http://www.w3.org/2000/svg">
<circle cx="29.0471" cy="28.3342" r="28.3342" fill="#00C896"/>
<g clip-path="url(#clip0)">
<path d="M23.7389 36.1205H19.5274V23.52H23.7389V36.1205ZM21.6309 21.8011C20.2845 21.8011 19.1919 20.7648 19.1919 19.5136C19.1919 18.2624 20.2845 17.2471 21.6309 17.2471C22.9773 17.2471 24.0699 18.2624 24.0699 19.5136C24.0699 20.7648 22.9773 21.8011 21.6309 21.8011ZM39.5017 36.1205H35.2992V29.9866C35.2992 28.5248 35.2675 26.6501 33.1095 26.6501C30.9199 26.6501 30.5844 28.2383 30.5844 29.8813V36.1205H26.3774V23.52H30.4167V25.2388H30.4756C31.0378 24.2488 32.4114 23.204 34.4605 23.204C38.7219 23.204 39.5062 25.8117 39.5062 29.1988V36.1205H39.5017Z" fill="white"/>
</g>
<defs>
<clipPath id="clip0">
<rect width="20.3098" height="21.5696" fill="white" transform="translate(19.1919 17.2471)"/>
</clipPath>
</defs>
</svg>
