<svg width="57" height="58" viewBox="0 0 57 58" fill="none" xmlns="http://www.w3.org/2000/svg">
<circle cx="28.3342" cy="29.0373" r="28.3342" fill="#00C896"/>
<path d="M21.7066 27.1743C23.4806 31.5322 26.3386 35.0894 29.825 37.3222L32.5352 33.9345C32.8678 33.5187 33.3606 33.3801 33.7918 33.5649C35.1715 34.1346 36.6621 34.4426 38.1897 34.4426C38.8673 34.4426 39.4216 35.1356 39.4216 35.9825V41.3568C39.4216 42.2037 38.8673 42.8967 38.1897 42.8967C26.622 42.8967 17.2471 31.178 17.2471 16.7184C17.2471 15.8714 17.8014 15.1785 18.479 15.1785H22.7907C23.4683 15.1785 24.0226 15.8714 24.0226 16.7184C24.0226 18.6432 24.269 20.4911 24.7248 22.2158C24.8603 22.7548 24.7618 23.3553 24.4168 23.7865L21.7066 27.1743Z" fill="white"/>
</svg>
